<?xml version="1.0" standalone="no"?>
<!DOCTYPE svg PUBLIC "-//W3C//DTD SVG 20010904//EN"
 "http://www.w3.org/TR/2001/REC-SVG-20010904/DTD/svg10.dtd">
<svg version="1.0" xmlns="http://www.w3.org/2000/svg"
 width="579.000000pt" height="602.000000pt" viewBox="0 0 579.000000 602.000000"
 preserveAspectRatio="xMidYMid meet">

<g transform="translate(0.000000,602.000000) scale(0.100000,-0.100000)"
fill="#6a5acd" stroke="none">
<path d="M420 6009 c0 -5 6 -9 14 -9 8 0 18 -5 22 -12 5 -8 2 -9 -12 -4 -40
17 -57 19 -50 8 4 -7 3 -12 -3 -12 -5 0 -12 6 -14 13 -3 6 -6 -7 -6 -30 -1
-24 4 -43 10 -43 5 0 8 -4 4 -9 -12 -20 39 -36 64 -20 12 8 10 8 -8 3 -18 -5
-22 -3 -16 7 5 8 5 11 1 7 -11 -9 -46 29 -46 50 0 13 3 11 13 -7 6 -14 19 -27
27 -29 11 -4 10 1 -4 17 -11 11 -14 21 -9 21 16 0 36 -28 28 -40 -3 -5 1 -10
10 -10 9 0 14 4 11 9 -4 5 1 8 9 7 19 -3 32 -16 15 -16 -7 0 -11 -2 -8 -5 3
-3 30 6 61 20 50 22 57 28 56 52 l-2 28 -4 -27 c-3 -18 -13 -30 -34 -37 -21
-7 -29 -7 -30 2 0 7 -2 20 -4 29 -4 21 20 44 30 28 9 -14 22 -13 28 4 5 11
-10 14 -74 14 -43 0 -79 -4 -79 -9z m77 -33 c0 -8 -6 -12 -12 -10 -6 3 -12 11
-12 18 0 8 6 12 12 10 6 -3 12 -11 12 -18z m-57 -6 c8 -5 11 -10 5 -10 -5 0
-17 5 -25 10 -8 5 -10 10 -5 10 6 0 17 -5 25 -10z m70 -40 c0 -5 -5 -10 -11
-10 -5 0 -7 5 -4 10 3 6 8 10 11 10 2 0 4 -4 4 -10z"/>
<path d="M1625 5987 c-103 -103 -42 -287 104 -312 171 -29 285 185 166 311
-28 30 -38 34 -81 34 l-49 -1 38 -13 c41 -15 73 -40 89 -69 7 -14 4 -22 -17
-39 -30 -24 -71 -99 -80 -151 -7 -35 -10 -37 -44 -37 -45 0 -95 30 -120 71
l-19 31 34 30 c43 38 71 83 82 136 l10 42 -40 0 c-32 0 -47 -7 -73 -33z m70
-14 c-11 -46 -76 -125 -91 -111 -8 9 28 84 52 109 35 36 48 37 39 2z m211
-158 c-8 -30 -54 -85 -71 -85 -24 0 8 83 49 128 l21 24 3 -22 c2 -12 1 -32 -2
-45z"/>
<path d="M2897 6013 c-12 -12 -7 -41 8 -47 8 -3 15 -17 15 -31 0 -17 5 -25 17
-25 13 0 14 3 5 12 -17 17 -15 35 4 42 13 5 15 2 11 -14 -3 -11 -1 -23 4 -26
5 -3 4 -14 -2 -26 -9 -17 -13 -18 -20 -7 -7 11 -9 10 -9 -5 0 -19 70 -96 87
-96 6 0 8 12 6 28 -4 26 -4 26 12 7 8 -11 13 -25 11 -32 -4 -9 6 -13 37 -11
37 1 38 2 10 5 -20 3 -33 10 -33 19 0 17 12 18 29 2 10 -11 11 -9 5 6 -6 15
-4 18 8 14 8 -4 30 2 47 13 48 29 73 24 36 -6 -16 -14 -35 -23 -41 -21 -6 2
-11 -2 -11 -10 0 -8 5 -14 10 -14 15 0 87 76 87 91 0 11 -2 11 -10 -1 -9 -13
-11 -13 -20 0 -12 19 -12 27 -1 35 6 3 6 18 0 38 -6 22 -6 33 2 36 6 2 -2 9
-16 17 -19 10 -63 14 -137 14 -101 0 -110 -2 -115 -20 -3 -11 -12 -20 -19 -20
-17 0 -18 12 -2 28 7 7 8 12 2 12 -6 0 -14 -3 -17 -7z m233 -73 c17 0 18 -3 8
-25 -12 -26 -28 -34 -28 -12 0 6 -14 20 -30 29 -17 9 -30 13 -30 8 0 -16 -20
-11 -26 5 -4 8 -4 22 0 30 5 13 12 12 46 -10 22 -14 49 -25 60 -25z m-150 -70
c0 -11 -4 -20 -9 -20 -14 0 -23 18 -16 30 10 17 25 11 25 -10z m30 -36 c0 -8
-7 -14 -15 -14 -17 0 -18 2 -9 24 7 18 24 12 24 -10z"/>
<path d="M3221 5993 c7 -20 6 -28 -3 -35 -10 -6 -10 -8 1 -8 9 0 11 -8 7 -25
-4 -14 -2 -25 4 -25 11 0 13 61 4 98 -4 12 -10 22 -15 22 -5 0 -4 -12 2 -27z"/>
<path d="M3426 6005 c4 -8 1 -15 -6 -15 -8 0 -9 -6 -5 -17 4 -10 8 -26 9 -36
2 -10 7 -22 13 -25 5 -4 15 -17 22 -30 7 -12 16 -20 22 -17 5 4 12 -1 15 -9 8
-20 33 -21 40 -2 3 8 -2 28 -10 45 -21 40 -20 46 9 59 38 18 43 16 65 -28 17
-33 24 -39 38 -31 17 9 18 22 10 104 -2 13 -12 17 -45 17 -24 0 -43 -4 -43
-10 0 -9 -51 -40 -65 -40 -3 0 -10 11 -15 25 -7 17 -17 25 -34 25 -18 0 -24
-4 -20 -15z"/>
<path d="M3991 6001 c-13 -10 -32 -16 -42 -14 -25 7 -52 -37 -43 -71 7 -29 38
-51 60 -42 8 3 39 0 69 -6 31 -6 58 -8 62 -4 11 11 13 105 3 111 -6 3 -10 15
-10 26 0 10 -4 19 -10 19 -5 0 -10 -7 -10 -15 0 -9 -7 -18 -15 -21 -19 -8 -9
-25 12 -22 26 5 27 -21 1 -32 l-23 -9 23 -7 c12 -3 22 -13 22 -21 0 -12 -8
-14 -37 -8 -47 8 -50 11 -58 56 -6 33 -4 38 27 57 26 17 29 22 13 22 -11 0
-31 -9 -44 -19z m-37 -57 c10 -27 7 -44 -9 -44 -18 0 -30 24 -21 45 7 20 22
19 30 -1z"/>
<path d="M4315 5989 c-8 -35 -30 -47 -56 -31 -24 16 -42 15 -37 0 3 -7 17 -14
32 -15 16 -1 31 -4 34 -7 3 -3 -1 -31 -8 -61 -7 -30 -11 -58 -7 -61 10 -10 95
33 119 61 41 47 13 145 -41 145 -25 0 -31 -5 -36 -31z m48 -8 c26 -44 23 -63
-10 -55 -40 9 -45 17 -32 52 14 39 20 40 42 3z m7 -82 c0 -11 -60 -49 -77 -49
-7 0 -10 6 -8 13 24 69 22 67 55 56 16 -6 30 -15 30 -20z"/>
<path d="M4713 6006 c4 -9 -5 -16 -25 -20 -145 -29 -173 -239 -43 -313 47 -26
122 -30 163 -9 90 47 127 165 75 244 -13 21 -13 25 3 37 16 11 16 15 5 29 -13
15 -15 15 -32 1 -16 -15 -20 -15 -48 -1 -16 9 -37 16 -47 16 -10 0 -14 5 -10
15 4 11 -2 15 -20 15 -18 0 -25 -4 -21 -14z m94 -71 c60 -39 80 -123 43 -182
-28 -46 -72 -66 -133 -60 -70 6 -109 46 -115 119 -4 48 -1 58 24 87 51 60 122
74 181 36z"/>
<path d="M4732 5893 c-1 -23 -6 -45 -12 -48 -5 -3 -10 -15 -10 -26 0 -14 7
-19 25 -19 26 0 35 26 16 46 -5 5 -11 27 -14 49 l-4 40 -1 -42z"/>
<path d="M5030 6010 l-35 -6 45 -6 c30 -5 47 -3 53 5 5 7 6 3 2 -10 -4 -14 -2
-23 5 -23 7 0 8 -6 1 -19 -12 -21 -5 -31 18 -30 12 0 11 3 -4 9 -17 7 -17 9
-2 9 16 1 19 6 21 41 1 10 16 17 46 21 l45 6 -45 3 c-88 6 -115 6 -150 0z m98
-45 c-3 -3 -9 2 -12 12 -6 14 -5 15 5 6 7 -7 10 -15 7 -18z"/>
<path d="M5671 6003 c-1 -13 6 -23 17 -25 15 -3 16 -7 4 -38 l-13 -35 5 33 c3
19 1 32 -5 32 -14 0 -7 -62 7 -67 7 -2 15 12 18 31 4 19 13 37 21 40 8 3 15
11 14 18 0 10 -2 10 -6 1 -2 -7 -9 -13 -14 -13 -4 0 -6 6 -3 14 3 8 1 17 -5
21 -6 3 -14 -2 -18 -11 -6 -16 -7 -16 -14 2 -7 18 -8 17 -8 -3z"/>
<path d="M537 5991 c2 -2 -2 -10 -8 -17 -14 -18 9 -30 25 -13 6 8 10 13 7 12
-2 -2 -9 3 -15 10 -6 7 -10 10 -9 8z"/>
<path d="M5423 5993 c26 -2 67 -2 90 0 23 2 2 3 -48 3 -49 0 -68 -1 -42 -3z"/>
<path d="M5588 5993 c7 -3 16 -2 19 1 4 3 -2 6 -13 5 -11 0 -14 -3 -6 -6z"/>
<path d="M5208 5961 c9 -16 21 -29 26 -28 4 1 11 -4 14 -12 3 -10 0 -11 -9 -5
-12 7 -12 5 0 -9 7 -9 16 -15 20 -13 3 2 12 -2 19 -10 7 -8 10 -14 6 -14 -4 0
2 -10 14 -23 24 -25 56 -121 48 -142 -2 -7 -15 -15 -28 -17 -21 -3 -23 -8 -21
-53 2 -35 0 -46 -7 -35 -15 24 -12 2 5 -30 10 -19 11 -30 5 -30 -6 0 -9 -4 -5
-9 3 -5 -5 -12 -17 -14 l-23 -4 23 -2 c12 0 25 6 29 15 5 13 7 13 14 2 6 -9 9
-9 9 -1 0 6 -4 15 -10 18 -5 3 -10 23 -10 44 0 36 2 38 33 40 48 4 58 4 102
-1 38 -5 40 -6 39 -39 -1 -19 -5 -44 -9 -56 -6 -20 -4 -23 20 -23 26 0 27 1
12 18 -16 17 -13 67 4 78 13 7 11 54 -2 54 -5 0 -7 5 -4 10 3 6 2 10 -4 10 -5
0 -17 3 -27 7 -14 5 -16 2 -10 -20 6 -25 4 -27 -25 -27 -31 0 -31 0 -10 18 17
14 20 24 15 55 -5 26 -10 34 -15 25 -11 -17 -11 -10 0 30 8 26 6 34 -9 45 -15
11 -18 22 -14 55 4 40 3 42 -21 42 -20 0 -25 -5 -25 -25 0 -31 14 -32 27 -2
10 21 10 21 10 -5 0 -15 -3 -26 -6 -23 -4 2 -6 -19 -5 -48 1 -28 7 -53 13 -55
13 -4 15 -22 3 -22 -5 0 -16 16 -25 35 -9 19 -13 35 -9 35 10 0 9 30 -1 47 -4
6 -19 14 -34 18 -26 6 -123 99 -123 117 0 5 -4 8 -10 8 -5 0 -2 -13 8 -29z
m137 -129 c-10 -2 -27 5 -38 17 l-21 20 38 -17 c26 -12 33 -18 21 -20z m15
-29 c0 -10 1 -28 1 -40 0 -13 4 -23 9 -23 6 0 6 -10 0 -24 -5 -13 -6 -26 -4
-29 3 -3 0 -8 -7 -12 -9 -6 -10 -1 -5 19 4 15 0 48 -8 76 -13 42 -13 50 -1 50
8 0 14 -8 15 -17z m57 -18 c0 -8 -4 -15 -9 -15 -10 0 -11 14 -1 23 9 10 10 9
10 -8z m-17 -75 c0 -5 -5 -10 -11 -10 -5 0 -7 5 -4 10 3 6 8 10 11 10 2 0 4
-4 4 -10z m40 -20 c0 -5 -7 -6 -17 -3 -11 4 -14 3 -9 -5 5 -8 2 -10 -9 -5 -13
5 -14 7 -3 14 18 12 38 11 38 -1z m-116 -18 c7 -12 -12 -38 -21 -28 -4 5 -2
11 6 14 11 4 11 6 0 13 -9 6 -10 9 -2 9 6 0 14 -4 17 -8z m76 -13 c0 -3 -9 -9
-20 -12 -19 -5 -27 3 -15 15 8 7 35 6 35 -3z m110 -29 c0 -5 -4 -10 -9 -10 -6
0 -13 5 -16 10 -3 6 1 10 9 10 9 0 16 -4 16 -10z m-15 -100 c3 -5 1 -10 -4
-10 -6 0 -11 5 -11 10 0 6 2 10 4 10 3 0 8 -4 11 -10z"/>
<path d="M5758 5983 c6 -2 18 -2 25 0 6 3 1 5 -13 5 -14 0 -19 -2 -12 -5z"/>
<path d="M2664 5966 c-10 -26 4 -48 28 -44 17 2 23 10 23 28 0 18 -6 26 -23
28 -13 2 -25 -3 -28 -12z"/>
<path d="M5535 5929 c-27 -27 -64 -56 -82 -64 -40 -20 -47 -30 -28 -45 8 -7
15 -9 16 -4 0 5 4 0 9 -11 7 -16 9 -17 9 -3 1 9 -3 20 -9 23 -16 10 -11 21 10
22 13 1 18 -2 14 -9 -4 -7 -2 -8 4 -4 6 4 8 14 5 23 -4 10 -2 14 4 10 11 -7
47 26 38 35 -3 2 5 10 18 17 22 12 65 62 50 60 -4 -1 -30 -24 -58 -50z m-15
-33 c0 -2 -8 -10 -17 -17 -16 -13 -17 -12 -4 4 13 16 21 21 21 13z"/>
<path d="M535 5892 c-32 -15 -36 -19 -21 -25 11 -4 16 -13 12 -22 -3 -8 1 -31
8 -52 11 -33 13 -35 19 -14 7 27 -1 53 -14 45 -17 -10 -9 12 16 46 35 47 36
46 -20 22z m15 -17 c-7 -8 -17 -12 -23 -8 -6 4 -3 9 9 14 27 11 28 11 14 -6z"/>
<path d="M2534 5899 c-4 -6 -20 -8 -39 -5 -30 6 -32 5 -27 -19 3 -16 -2 -33
-13 -45 -18 -19 -17 -20 12 -20 21 0 33 -7 43 -25 l14 -25 12 30 c9 19 20 30
34 30 23 0 27 15 5 24 -9 3 -15 18 -15 36 0 30 -13 40 -26 19z"/>
<path d="M4427 5904 c-13 -13 -7 -24 14 -24 11 0 19 5 17 12 -5 14 -22 21 -31
12z"/>
<path d="M604 5892 c3 -5 0 -13 -6 -15 -8 -3 -6 -6 5 -6 19 -1 23 14 5 25 -6
4 -8 3 -4 -4z"/>
<path d="M461 5861 c-12 -8 -9 -11 12 -17 16 -3 31 -4 34 0 4 3 -5 6 -18 6
-19 0 -21 2 -9 10 8 5 11 10 5 10 -5 0 -17 -4 -24 -9z"/>
<path d="M4194 5708 c-16 -7 -15 -8 4 -4 20 4 21 2 10 -11 -11 -14 -10 -16 12
-10 18 4 37 -2 69 -23 24 -16 48 -27 54 -23 14 9 -33 45 -50 39 -7 -3 -13 -2
-13 2 0 15 -67 38 -86 30z m132 -54 c18 -14 18 -14 -6 -3 -31 14 -36 19 -24
19 6 0 19 -7 30 -16z"/>
<path d="M2962 5659 c-19 -7 -22 -13 -16 -31 15 -47 10 -62 -23 -71 -35 -11
-39 -20 -23 -62 7 -19 15 -25 26 -21 55 21 64 19 79 -18 16 -39 25 -42 66 -23
25 12 26 13 12 45 -14 34 -24 36 -75 17 -10 -4 -20 7 -31 35 -16 41 -16 41 9
50 14 6 29 10 34 10 17 0 20 18 9 49 -11 32 -26 37 -67 20z"/>
<path d="M5272 5645 c0 -16 2 -22 5 -12 2 9 2 23 0 30 -3 6 -5 -1 -5 -18z"/>
<path d="M610 5635 c-5 -14 -10 -30 -10 -35 0 -4 -13 -3 -29 3 -26 9 -34 7
-68 -15 -37 -26 -120 -58 -148 -58 -19 0 -29 -20 -17 -32 8 -8 16 -7 27 2 9 8
40 17 68 21 29 4 59 9 67 10 21 5 14 -33 -15 -86 -14 -23 -27 -62 -29 -86 -3
-24 -8 -59 -12 -76 l-6 -33 -66 0 c-49 0 -68 4 -77 17 -13 17 -16 16 -79 -20
-68 -38 -59 -48 36 -42 60 5 97 2 133 -9 75 -23 90 -21 124 23 17 21 31 43 31
48 0 6 8 17 18 27 17 15 22 15 55 1 21 -8 37 -22 37 -30 0 -8 25 -39 55 -69
30 -30 55 -61 55 -70 0 -13 11 -16 54 -16 58 0 82 14 44 25 -39 12 -88 55
-136 120 -26 34 -66 85 -89 112 -37 43 -40 50 -27 67 13 18 14 18 31 -1 23
-25 98 -83 109 -83 4 0 18 -10 30 -21 24 -23 54 -20 54 5 0 8 -14 17 -31 21
-40 9 -106 75 -142 142 l-27 52 25 27 c35 38 31 78 -7 82 -22 3 -30 -2 -38
-23z"/>
<path d="M4357 5602 c3 -23 2 -24 -6 -7 -8 17 -9 15 -8 -13 2 -29 3 -30 15
-15 11 16 14 16 22 3 5 -8 10 -19 10 -25 0 -5 -4 -5 -8 2 -5 8 -11 8 -24 -1
-10 -7 -14 -17 -10 -21 4 -5 1 -4 -7 0 -11 6 -13 4 -8 -8 22 -54 22 -53 4 -38
-9 7 -15 17 -12 21 3 5 1 12 -5 15 -8 5 -7 12 2 23 7 9 -14 -3 -46 -26 -33
-23 -66 -42 -73 -42 -12 0 -12 -3 1 -15 18 -19 27 -19 20 -1 -3 7 2 16 10 19
11 4 14 -1 13 -20 -1 -18 3 -26 16 -29 11 -1 17 2 14 9 -3 8 10 11 42 10 l46
-2 -42 8 c-40 7 -79 29 -69 39 3 2 12 -3 21 -12 21 -20 36 -21 29 -1 -4 8 -1
15 5 15 6 0 11 -6 11 -13 0 -7 9 -13 20 -14 11 -1 20 3 20 8 0 6 5 7 10 4 6
-3 10 1 10 9 0 9 5 16 11 16 8 0 7 6 -2 18 -7 9 -9 13 -4 9 5 -4 15 3 22 15 8
15 12 18 13 8 0 -9 -5 -21 -12 -28 -7 -7 -8 -12 -4 -12 5 0 3 -6 -3 -14 -9
-10 -8 -15 4 -19 8 -4 14 -3 14 1 -5 29 2 34 17 14 9 -13 13 -29 11 -37 -3 -7
4 -21 16 -31 12 -11 19 -15 15 -10 -4 4 5 19 20 32 l27 23 -29 -5 c-20 -3 -32
1 -42 13 -17 23 -18 47 -1 40 6 -2 18 2 25 9 10 11 10 14 -1 14 -8 0 -20 7
-27 15 -9 11 -9 15 -1 15 7 0 10 4 6 10 -4 6 -15 6 -32 -1 -19 -7 -29 -6 -37
2 -8 9 -7 11 5 6 9 -3 22 -1 30 5 10 7 5 8 -18 5 -22 -2 -33 1 -33 9 0 7 -4
15 -9 18 -4 3 -6 -7 -4 -22z m-48 -103 c-15 -9 -32 -2 -24 11 3 5 13 6 21 3
12 -4 13 -8 3 -14z m177 -54 c-10 -8 -24 -11 -30 -8 -6 4 0 10 14 14 36 10 37
10 16 -6z"/>
<path d="M2812 5607 c-22 -7 -31 -15 -27 -25 3 -7 8 -25 11 -39 4 -16 11 -22
21 -19 8 4 26 9 39 12 13 3 24 10 24 14 0 16 -22 70 -28 69 -4 -1 -22 -6 -40
-12z"/>
<path d="M4455 5596 c11 -8 16 -19 12 -30 -8 -21 2 -21 19 2 13 16 14 16 8 -3
-5 -16 -4 -17 5 -5 13 19 -13 50 -42 50 -20 0 -20 -1 -2 -14z"/>
<path d="M2643 5550 c-20 -8 -21 -12 -11 -42 6 -18 12 -35 14 -36 3 -4 74 18
74 22 0 2 -5 17 -11 35 -11 32 -26 37 -66 21z"/>
<path d="M2568 5534 c-7 -7 138 -444 152 -458 7 -7 14 -6 21 1 11 11 -28 138
-118 391 -23 65 -38 83 -55 66z"/>
<path d="M4535 5529 c-4 -6 -4 -13 -1 -16 3 -4 6 -1 6 6 0 8 6 11 16 7 8 -3
12 -2 9 4 -8 13 -22 13 -30 -1z"/>
<path d="M2760 5501 c-25 -7 -27 -15 -19 -70 3 -21 -2 -26 -29 -35 -31 -9 -33
-12 -28 -40 9 -42 19 -50 53 -39 28 10 30 17 22 72 -3 19 2 26 34 37 29 10 39
11 42 1 24 -69 21 -66 60 -54 34 10 36 13 31 41 -9 42 -18 48 -51 36 -38 -14
-52 -8 -60 29 -7 32 -12 34 -55 22z"/>
<path d="M147 5485 c3 -9 2 -15 -3 -14 -5 1 -22 1 -37 0 -25 -1 -27 -3 -17
-21 6 -12 8 -30 5 -40 -4 -12 -2 -20 4 -20 6 0 10 3 10 8 -4 21 2 42 12 42 6
0 9 -9 6 -20 -4 -17 -2 -18 14 -9 15 8 19 6 19 -6 0 -10 -5 -13 -12 -9 -8 5
-7 0 2 -11 14 -18 15 -17 18 6 2 13 13 31 24 40 21 16 21 16 -6 23 -17 4 -26
13 -26 26 0 11 -4 20 -10 20 -5 0 -7 -7 -3 -15z m-12 -25 c-3 -5 -14 -10 -23
-9 -14 0 -13 2 3 9 27 11 27 11 20 0z m45 -20 c0 -14 -15 -19 -29 -10 -17 10
-5 31 14 23 8 -3 15 -9 15 -13z"/>
<path d="M4515 5490 c-3 -5 -1 -10 4 -10 6 0 11 5 11 10 0 6 -2 10 -4 10 -3 0
-8 -4 -11 -10z"/>
<path d="M4380 5460 c-9 -6 -10 -10 -3 -10 6 0 15 5 18 10 8 12 4 12 -15 0z"/>
<path d="M4150 5434 c-6 -14 -10 -29 -10 -34 0 -5 -9 -12 -20 -15 -24 -8 -44
-41 -34 -58 4 -6 4 -9 -1 -5 -10 9 -77 -25 -95 -49 -14 -17 -14 -17 6 0 25 21
31 21 31 2 0 -8 -6 -15 -13 -15 -6 0 -19 -11 -28 -25 -9 -14 -21 -23 -26 -20
-5 3 -11 1 -15 -5 -3 -5 -15 -10 -26 -10 -14 0 -19 -7 -19 -29 0 -41 16 -47
37 -14 10 15 30 39 46 51 15 13 24 29 20 34 -4 7 -1 8 6 3 8 -4 24 4 42 21 16
15 29 24 29 19 0 -5 8 2 17 15 10 14 18 28 18 33 0 4 3 7 8 7 4 0 10 0 14 0 3
0 -4 -12 -18 -26 l-24 -26 28 13 c15 7 27 18 27 26 0 7 3 12 8 12 19 -3 33 2
28 10 -3 5 1 12 10 15 8 3 12 11 8 17 -4 7 -1 10 7 7 8 -3 13 -10 12 -17 -2
-6 11 -18 28 -27 21 -10 29 -11 23 -3 -5 9 -2 11 9 6 19 -7 23 8 5 19 -6 4
-14 2 -16 -4 -2 -7 -8 -12 -14 -12 -6 0 -6 6 2 15 15 18 0 20 -20 3 -12 -11
-12 -10 -2 3 16 22 82 17 99 -7 7 -10 15 -15 18 -13 3 3 -8 18 -23 32 -29 28
-72 44 -72 26 0 -5 -5 -9 -11 -9 -5 0 -8 4 -4 9 3 5 -8 16 -25 25 -17 8 -27
10 -24 4 4 -6 1 -8 -7 -6 -8 3 -13 11 -11 17 5 22 -19 10 -28 -15z m38 -32 c2
-7 -1 -12 -8 -12 -6 0 -9 4 -6 9 4 5 1 12 -4 14 -6 3 -5 4 2 3 6 -1 14 -8 16
-14z m37 8 c3 -5 2 -10 -4 -10 -5 0 -13 5 -16 10 -3 6 -2 10 4 10 5 0 13 -4
16 -10z m-60 -58 c-3 -3 -11 0 -18 7 -9 10 -8 11 6 5 10 -3 15 -9 12 -12z
m-226 -177 c-25 -42 -29 -43 -28 -7 0 15 3 21 6 14 4 -10 9 -8 20 7 23 33 24
24 2 -14z"/>
<path d="M1610 5435 c0 -17 9 -19 28 -6 11 7 10 10 -3 15 -23 9 -25 8 -25 -9z"/>
<path d="M5617 5433 c-4 -3 -7 -17 -7 -30 0 -18 6 -23 24 -23 28 0 37 17 24
43 -9 17 -29 23 -41 10z"/>
<path d="M1585 5381 c-4 -8 -10 -28 -12 -45 -5 -50 -13 -66 -31 -66 -15 0 -15
2 -2 10 13 8 12 10 -2 10 -10 0 -18 -5 -18 -11 0 -6 -9 -8 -20 -4 -11 4 -20 2
-20 -4 0 -7 23 -11 56 -11 52 0 55 1 43 17 -8 10 -9 14 -2 10 8 -5 14 7 18 37
8 52 3 78 -10 57z"/>
<path d="M4314 5362 c4 -7 2 -19 -4 -27 -7 -8 -9 -15 -6 -15 4 0 -2 -14 -14
-30 -14 -20 -17 -30 -8 -28 7 2 17 8 21 13 5 6 7 4 5 -4 -2 -8 -12 -15 -22
-17 -29 -4 -46 -25 -46 -56 0 -16 -4 -27 -9 -23 -6 3 -8 14 -6 25 2 12 0 18
-6 15 -5 -4 -7 -11 -4 -16 4 -5 0 -9 -7 -9 -7 0 1 -11 17 -25 17 -13 39 -24
50 -24 16 1 15 2 -5 9 -14 4 -19 8 -11 9 11 1 11 4 1 16 -17 21 -6 42 35 66
19 12 32 26 28 32 -3 5 -2 7 3 4 17 -10 58 29 50 48 -3 10 -9 15 -13 11 -4 -3
-18 4 -31 16 -14 13 -22 17 -18 10z m26 -58 c0 -8 -9 -14 -21 -14 -11 0 -17 5
-14 10 4 6 12 7 18 3 7 -4 6 1 -2 10 -12 15 -12 17 3 11 9 -3 16 -12 16 -20z"/>
<path d="M922 5338 c-31 -31 5 -92 49 -81 23 6 36 49 22 72 -13 20 -54 26 -71
9z"/>
<path d="M0 5260 c0 -21 4 -30 12 -27 17 5 17 49 1 55 -9 2 -13 -7 -13 -28z"/>
<path d="M1442 5256 c-6 -14 -9 -34 -7 -45 2 -12 0 -21 -6 -21 -5 0 -10 15
-10 33 -1 25 -3 21 -9 -18 -5 -27 -9 -66 -9 -86 -1 -34 2 -38 47 -57 70 -30
96 -32 100 -5 2 15 -4 23 -20 29 -23 7 -23 7 5 16 15 6 24 14 21 19 -4 6 -11
6 -19 -1 -8 -7 -15 -7 -19 -1 -4 5 -2 12 4 16 5 3 10 3 10 -1 0 -4 7 1 16 12
8 10 13 13 9 6 -4 -7 -2 -19 5 -27 9 -10 7 -16 -7 -25 -10 -6 -11 -9 -3 -6 8
3 23 9 33 12 16 6 16 7 1 19 -14 9 -14 14 -4 20 9 5 11 4 6 -3 -4 -7 -3 -12 3
-12 6 0 9 13 8 30 -2 32 -16 42 -18 13 0 -11 -3 -13 -6 -6 -3 10 -10 10 -25 2
-18 -10 -18 -9 -8 10 7 14 21 21 42 21 41 0 33 6 -17 13 -27 4 -35 3 -25 -3
13 -8 13 -10 -2 -10 -9 0 -19 -8 -22 -17 -2 -10 -4 -4 -3 12 2 24 -2 30 -17
30 -11 0 -21 6 -24 13 -2 6 -8 10 -13 6 -13 -8 -11 10 3 24 7 7 8 12 2 12 -6
0 -16 -11 -22 -24z m13 -26 c3 -5 1 -10 -4 -10 -6 0 -11 5 -11 10 0 6 2 10 4
10 3 0 8 -4 11 -10z m41 -25 c-14 -11 -16 -15 -5 -15 10 -1 9 -4 -4 -11 -10
-6 -21 -8 -24 -5 -4 3 0 6 7 6 9 0 7 5 -6 15 -14 11 -15 14 -3 9 10 -3 20 -1
24 5 3 6 12 11 18 11 7 0 3 -7 -7 -15z m-54 -43 c-7 -2 -9 -9 -6 -14 4 -7 2
-8 -4 -4 -7 4 -12 1 -12 -8 0 -10 6 -13 18 -9 14 5 13 3 -3 -10 -24 -19 -16
-29 25 -31 17 -1 30 -6 30 -14 0 -8 8 -10 25 -6 20 5 25 3 24 -12 0 -11 -3
-14 -5 -7 -3 7 -11 10 -19 7 -7 -3 -34 4 -59 15 -41 18 -46 23 -46 53 0 36 17
61 34 51 6 -4 6 -8 -2 -11z m73 -12 c-3 -5 -12 -10 -18 -10 -7 0 -6 4 3 10 19
12 23 12 15 0z m-39 -15 c-3 -10 1 -15 11 -15 22 0 8 -13 -16 -15 -16 -1 -17
2 -8 22 11 25 23 32 13 8z"/>
<path d="M1600 5267 c0 -4 8 -7 18 -6 9 1 24 0 32 -3 44 -16 103 -29 108 -23
11 10 -22 25 -42 19 -13 -5 -16 -3 -11 7 6 9 4 11 -7 6 -9 -3 -21 0 -28 6 -10
9 -11 9 -6 0 4 -7 2 -13 -3 -13 -6 0 -11 4 -11 10 0 5 -11 9 -25 8 -14 -1 -25
-6 -25 -11z"/>
<path d="M2864 5256 c-10 -26 4 -48 28 -44 17 2 23 10 23 28 0 18 -6 26 -23
28 -13 2 -25 -3 -28 -12z"/>
<path d="M1180 5245 c-17 -21 -5 -45 24 -45 28 0 37 17 24 43 -11 21 -31 22
-48 2z"/>
<path d="M1778 5230 c6 -8 11 -30 11 -49 -2 -34 -2 -35 -6 -6 -6 42 -13 46
-57 34 -30 -8 -36 -13 -25 -21 11 -7 11 -11 1 -15 -6 -2 -10 -9 -7 -13 3 -5 1
-11 -4 -14 -4 -3 -8 2 -8 12 0 37 -4 42 -29 42 -14 0 -23 -4 -19 -10 3 -5 13
-7 23 -4 13 5 14 4 4 -4 -8 -5 -12 -18 -11 -28 2 -11 -1 -19 -6 -19 -5 0 -8
10 -7 21 2 12 -3 24 -11 27 -7 3 -14 -1 -14 -9 0 -7 4 -11 9 -8 14 9 9 -7 -8
-23 -13 -13 -13 -17 -2 -24 7 -5 9 -9 4 -9 -6 0 -5 -5 2 -12 7 -7 12 -23 12
-36 0 -13 4 -20 10 -17 6 3 16 3 22 -1 9 -6 5 -10 -12 -15 -25 -7 -25 -7 4 -8
23 -1 27 3 24 17 -4 15 2 18 34 18 38 0 40 -10 3 -19 -11 -2 -2 -3 20 0 22 2
43 7 46 11 4 4 10 43 13 88 6 71 5 82 -11 94 -15 12 -16 12 -5 0z m-15 -66
c-2 -7 0 -15 6 -19 13 -7 15 -55 2 -55 -4 0 -8 12 -7 27 1 14 -5 28 -13 31 -9
3 -11 0 -6 -8 5 -9 4 -11 -4 -6 -6 4 -8 12 -5 18 5 7 1 9 -9 5 -10 -3 -17 -2
-17 3 0 10 13 14 40 11 13 -2 13 -1 0 8 -8 5 -17 8 -21 5 -4 -2 -11 1 -15 7
-5 9 0 10 14 7 13 -4 22 -1 23 5 0 7 4 3 8 -8 5 -11 6 -25 4 -31z m-8 -65 c-4
-5 1 -12 9 -15 18 -7 22 -34 6 -34 -5 0 -10 7 -10 16 0 8 -4 13 -8 10 -4 -2
-8 6 -8 19 0 13 4 21 8 19 5 -3 6 -10 3 -15z m-99 -19 c0 -11 -4 -20 -8 -20
-4 0 -8 9 -8 20 0 11 4 20 8 20 4 0 8 -9 8 -20z"/>
<path d="M2983 5128 c-4 -7 -8 -17 -9 -23 -1 -5 -7 -22 -13 -37 -9 -23 -17
-28 -46 -28 -31 0 -39 -5 -65 -47 -33 -52 -38 -73 -15 -73 13 0 15 -7 9 -37
-4 -21 -15 -49 -25 -63 -21 -29 -69 -189 -69 -231 0 -16 5 -29 10 -29 6 0 10
-7 10 -15 0 -10 10 -15 29 -15 24 0 28 -3 25 -26 -1 -14 -6 -29 -10 -32 -4 -4
-5 0 -2 9 4 9 2 22 -3 30 -7 11 -9 9 -9 -6 0 -12 -9 -38 -20 -60 -11 -22 -20
-46 -20 -55 1 -8 7 -1 15 15 l15 30 -3 -33 c-2 -19 0 -29 5 -24 5 5 10 27 11
50 0 22 5 39 9 36 9 -5 31 34 33 59 2 15 -7 21 -26 19 -4 -1 -5 9 -3 21 2 12
2 16 -2 10 -3 -7 -13 -13 -22 -13 -15 0 -15 2 -2 11 12 9 11 10 -7 6 -19 -4
-23 -1 -23 20 0 14 4 22 10 18 6 -4 8 -11 5 -16 -4 -5 -1 -9 6 -9 7 0 9 8 5
20 -3 11 -9 30 -12 43 l-5 22 13 -23 c8 -12 17 -19 21 -16 4 4 4 -6 1 -23 -4
-23 -2 -30 10 -30 18 0 22 13 5 19 -9 3 -9 10 1 27 7 14 8 21 1 17 -18 -11
-44 40 -32 62 6 11 7 22 4 26 -3 3 3 6 15 6 11 0 24 -4 27 -10 3 -5 -1 -10 -9
-10 -8 0 -20 -9 -26 -20 -9 -16 -8 -20 5 -20 9 0 14 4 10 9 -6 11 29 34 38 25
8 -9 -26 -44 -42 -44 -20 0 -5 -13 19 -17 12 -2 20 3 20 11 0 9 7 12 20 9 26
-7 34 -19 19 -29 -8 -4 -9 -3 -5 4 4 7 1 12 -9 12 -18 0 -37 -43 -29 -65 4 -8
1 -15 -5 -15 -6 0 -11 -7 -11 -15 0 -8 6 -15 14 -15 8 0 16 -6 19 -12 2 -7 10
13 16 45 10 45 18 61 37 69 35 16 53 50 54 100 0 59 4 79 19 106 6 12 9 28 5
34 -5 7 -3 8 5 4 8 -5 14 0 18 13 8 29 33 27 33 -3 0 -14 5 -28 10 -31 6 -3
10 -19 10 -35 0 -22 -6 -29 -26 -34 -15 -4 -24 -9 -22 -12 3 -2 17 0 32 5 23
9 26 16 26 59 0 27 -3 70 -6 95 -6 40 -10 47 -35 52 -16 4 -30 13 -30 21 -1 8
-3 19 -4 24 -1 6 -3 13 -4 17 0 3 -10 -2 -22 -13 -21 -19 -21 -19 -9 8 8 16
18 24 26 21 20 -7 17 7 -3 24 -16 13 -16 13 5 3 17 -8 21 -17 17 -31 -4 -12
-2 -19 7 -19 10 0 9 -3 -2 -11 -13 -9 -13 -10 0 -6 22 5 36 63 20 82 -15 18
-46 20 -57 3z m54 -28 c2 -21 1 -22 -5 -6 -5 11 -17 23 -28 28 -16 6 -15 7 6
5 19 -1 26 -8 27 -27z m-44 -89 c-2 -6 6 -11 16 -11 11 0 22 -4 25 -9 4 -5 -4
-7 -16 -4 -17 3 -19 2 -9 -5 9 -7 11 -16 6 -28 -5 -11 -7 -25 -6 -33 2 -11 -1
-10 -14 2 -8 9 -22 14 -30 11 -8 -4 -15 -1 -15 4 0 6 11 9 24 6 16 -3 26 2 30
12 4 12 2 15 -9 11 -8 -4 -17 -1 -21 5 -4 7 -3 8 4 4 8 -5 11 1 10 18 -3 29
-17 35 -19 9 -1 -17 -2 -17 -6 0 -3 10 -14 17 -29 17 -14 0 -23 -4 -19 -9 3
-5 -4 -12 -15 -16 -11 -3 -20 -12 -20 -18 0 -7 -4 -6 -10 3 -8 12 -10 12 -10
1 0 -8 -3 -12 -6 -9 -3 4 2 17 10 31 11 16 26 24 47 25 17 0 33 3 36 6 9 8 48
-12 46 -23z m-46 -14 c0 -7 -9 -14 -20 -14 -19 -2 -19 -2 -1 12 11 8 19 15 20
15 0 0 1 -6 1 -13z m102 -48 c-7 -4 -16 -5 -19 -2 -3 3 1 8 8 10 6 3 13 12 13
21 1 14 2 13 6 -2 3 -10 -1 -22 -8 -27z m-182 -4 c-4 -8 -2 -17 4 -20 5 -4 6
-11 3 -17 -10 -15 -25 17 -18 36 3 9 8 16 11 16 3 0 3 -7 0 -15z m201 -46 c-3
-20 -5 -19 -9 9 -3 20 -2 29 4 23 5 -5 7 -19 5 -32z m-98 1 c-24 -15 -36 -11
-14 4 10 8 21 12 24 10 2 -3 -2 -9 -10 -14z m-98 -28 c3 -11 0 -19 -8 -19 -16
0 -16 0 -8 21 8 21 11 20 16 -2z m93 -2 c-3 -5 -1 -10 6 -10 7 0 10 -2 7 -5
-8 -9 -38 6 -32 16 3 5 10 9 15 9 6 0 7 -4 4 -10z m-91 -59 c-2 -3 -12 3 -22
13 -16 17 -16 18 5 5 12 -7 20 -15 17 -18z m-27 -30 c-8 -9 -12 -10 -15 -2 -2
6 -8 9 -13 5 -5 -3 -9 -1 -9 4 0 6 11 9 24 8 19 -1 22 -4 13 -15z m24 -5 c-10
-12 -8 -19 8 -35 13 -13 21 -16 25 -8 3 7 2 -1 -1 -17 -5 -22 -3 -27 7 -21 9
5 11 4 6 -3 -4 -7 -2 -12 3 -12 6 0 11 7 11 16 0 8 5 12 11 8 7 -4 6 -11 -5
-22 -12 -12 -18 -13 -30 -3 -8 7 -20 10 -25 7 -6 -4 -8 6 -6 25 3 24 1 30 -10
25 -23 -8 -29 13 -9 35 20 22 32 26 15 5z m88 -59 c0 -9 -2 -8 -6 1 -2 6 -10
9 -15 6 -7 -4 -8 -2 -4 5 9 13 26 5 25 -12z m-88 -101 c-6 -7 -7 -17 -3 -21 4
-5 2 -5 -5 -2 -6 4 -9 16 -6 27 3 11 9 17 15 14 5 -3 5 -11 -1 -18z"/>
<path d="M2880 5010 c0 -5 5 -10 11 -10 5 0 7 5 4 10 -3 6 -8 10 -11 10 -2 0
-4 -4 -4 -10z"/>
<path d="M3890 5117 c0 -9 4 -18 9 -21 5 -4 8 1 7 9 -3 21 -16 31 -16 12z"/>
<path d="M47 5053 c-3 -4 -8 -23 -12 -41 -4 -18 -13 -36 -21 -39 -16 -6 -20
-93 -4 -93 13 0 13 -37 -1 -45 -9 -6 -7 -198 3 -295 0 -8 -2 -27 -7 -42 -6
-24 -4 -28 13 -28 19 0 21 6 21 78 -1 51 4 87 15 107 9 17 16 36 16 43 0 6 5
12 10 12 16 0 12 -211 -5 -260 -20 -56 -19 -60 9 -60 22 0 24 5 30 63 12 126
25 213 40 265 12 42 13 64 4 106 -9 45 -7 58 7 87 18 33 18 33 28 11 7 -15 7
-30 -2 -48 -8 -19 -8 -24 1 -18 8 5 9 2 5 -10 -5 -12 -3 -16 5 -14 15 5 28 99
21 146 -5 33 -6 33 -56 30 -47 -3 -51 -1 -57 22 -4 18 -14 26 -32 28 -14 2
-28 0 -31 -5z"/>
<path d="M5065 5006 c-95 -41 -131 -178 -72 -268 26 -39 98 -78 144 -78 65 0
139 44 168 101 20 38 17 127 -6 172 -18 35 -70 77 -94 77 -5 0 -2 -5 8 -11 9
-6 15 -14 12 -18 -2 -5 5 -17 17 -27 12 -11 18 -13 14 -6 -9 15 6 16 22 0 15
-15 16 -32 2 -23 -6 4 -5 -5 2 -20 8 -18 14 -22 20 -13 13 21 9 -22 -7 -75 -9
-32 -10 -45 -3 -41 8 5 9 1 5 -10 -4 -10 -7 -20 -7 -22 0 -2 -5 -4 -11 -4 -5
0 -7 6 -3 13 4 6 -6 0 -22 -14 -16 -15 -39 -32 -51 -38 -31 -16 -93 -14 -127
4 -25 14 -27 14 -16 0 23 -28 -8 -16 -39 16 -31 31 -44 62 -16 39 12 -10 12
-7 -1 20 -11 21 -15 47 -11 77 3 28 1 40 -4 32 -7 -11 -9 -11 -9 -1 0 20 20
53 29 48 5 -3 16 3 26 14 10 11 15 20 10 20 -4 0 -2 7 5 15 7 8 20 15 28 15
13 0 12 -3 -4 -15 -16 -13 -13 -13 20 1 22 9 51 13 70 10 22 -4 26 -4 11 3
l-20 8 20 5 c11 3 -2 6 -30 6 -27 1 -64 -5 -80 -12z m52 -2 c-3 -3 -12 -4 -19
-1 -8 3 -5 6 6 6 11 1 17 -2 13 -5z m143 -28 c0 -11 -19 -15 -25 -6 -3 5 1 10
9 10 9 0 16 -2 16 -4z m-220 -10 c0 -2 -7 -9 -15 -16 -13 -11 -14 -10 -9 4 5
14 24 23 24 12z m-63 -143 c-3 -10 -5 -2 -5 17 0 19 2 27 5 18 2 -10 2 -26 0
-35z m330 -35 c-3 -7 -5 -2 -5 12 0 14 2 19 5 13 2 -7 2 -19 0 -25z m-320 -10
c-3 -8 -6 -5 -6 6 -1 11 2 17 5 13 3 -3 4 -12 1 -19z m283 -48 c0 -11 -59 -50
-75 -50 -5 0 4 9 21 19 18 11 35 24 38 30 9 14 16 14 16 1z m-91 -56 c9 -8
-75 -2 -94 6 -12 5 1 6 35 3 30 -3 57 -7 59 -9z"/>
<path d="M4072 4987 c-6 -7 -13 -24 -17 -39 -6 -23 -3 -29 18 -37 58 -22 39
-61 -29 -61 -67 0 -61 -17 9 -23 45 -4 66 -2 76 8 11 11 19 11 49 -2 42 -17
89 -11 126 18 35 28 59 21 67 -18 12 -62 64 -96 143 -95 l51 1 -29 -16 c-38
-20 -91 -13 -210 29 -78 27 -103 31 -175 29 -69 -1 -90 2 -118 19 -40 24 -48
21 -39 -13 9 -37 54 -51 147 -44 69 4 93 1 182 -25 59 -18 128 -31 165 -32 58
-1 66 1 87 27 13 15 29 27 35 27 11 0 30 41 30 65 0 8 -11 17 -24 21 -13 3
-28 16 -34 28 -20 45 -124 72 -174 45 -14 -8 -23 -8 -31 0 -6 6 -20 11 -31 11
-12 0 -28 12 -37 28 -28 49 -134 81 -178 53 -9 -6 -22 -6 -32 -1 -11 7 -20 5
-27 -3z m153 -27 c13 0 65 -48 65 -60 0 -19 -33 -40 -63 -40 -31 0 -73 21 -89
44 -24 34 12 71 57 61 11 -3 25 -5 30 -5z m305 -109 c74 -54 -6 -111 -87 -61
-59 35 -35 97 32 85 17 -3 41 -14 55 -24z"/>
<path d="M4223 4929 c22 -11 41 -18 44 -15 6 6 -52 36 -69 36 -7 -1 4 -10 25
-21z"/>
<path d="M4480 4853 c8 -3 29 -12 45 -20 l30 -14 -24 21 c-13 11 -33 20 -45
19 -14 0 -16 -2 -6 -6z"/>
<path d="M2192 4955 c0 -16 2 -22 5 -12 2 9 2 23 0 30 -3 6 -5 -1 -5 -18z"/>
<path d="M2215 4951 c8 -7 -16 -41 -25 -36 -6 3 -17 2 -25 -3 -13 -7 -12 -10
10 -20 21 -10 25 -9 25 4 0 13 6 15 28 9 15 -3 32 -11 37 -17 10 -11 5 -10
-37 7 -13 5 -15 2 -12 -12 4 -15 12 -18 35 -15 31 5 35 12 17 30 -8 8 -9 18
-1 34 10 21 8 23 -23 23 -18 0 -31 -2 -29 -4z m38 -28 c-3 -7 -9 -10 -14 -7
-14 8 -11 21 5 21 8 0 12 -6 9 -14z"/>
<path d="M5108 4943 c7 -3 16 -2 19 1 4 3 -2 6 -13 5 -11 0 -14 -3 -6 -6z"/>
<path d="M2567 4934 c-15 -15 -7 -63 13 -74 33 -17 62 4 58 43 -3 27 -7 32
-33 35 -17 2 -34 0 -38 -4z"/>
<path d="M3454 4865 c-8 -21 2 -45 19 -45 21 0 38 25 31 44 -8 20 -43 21 -50
1z"/>
<path d="M5070 4876 c0 -2 8 -10 18 -17 15 -13 16 -12 3 4 -13 16 -21 21 -21
13z"/>
<path d="M2201 4854 c0 -11 3 -14 6 -6 3 7 2 16 -1 19 -3 4 -6 -2 -5 -13z"/>
<path d="M5246 4857 c3 -10 9 -15 12 -12 3 3 0 11 -7 18 -10 9 -11 8 -5 -6z"/>
<path d="M5045 4840 c10 -11 20 -20 23 -20 3 0 -3 9 -13 20 -10 11 -20 20 -23
20 -3 0 3 -9 13 -20z"/>
<path d="M2423 4843 c-19 -7 -16 -50 3 -57 19 -7 44 10 44 30 0 16 -30 33 -47
27z"/>
<path d="M5210 4830 c6 -11 13 -20 16 -20 2 0 0 9 -6 20 -6 11 -13 20 -16 20
-2 0 0 -9 6 -20z"/>
<path d="M5170 4806 c0 -3 9 -10 20 -16 11 -6 20 -8 20 -6 0 3 -9 10 -20 16
-11 6 -20 8 -20 6z"/>
<path d="M3257 4783 c-15 -14 -7 -63 12 -73 39 -20 82 22 61 60 -10 20 -58 28
-73 13z"/>
<path d="M5160 4756 c0 -2 7 -7 16 -10 8 -3 12 -2 9 4 -6 10 -25 14 -25 6z"/>
<path d="M4811 4676 c-17 -20 -2 -48 23 -44 24 3 34 37 14 49 -18 12 -24 11
-37 -5z"/>
<path d="M2224 4640 c-4 -16 -13 -30 -20 -30 -10 0 -14 -13 -14 -39 0 -22 -4
-43 -10 -46 -5 -3 -10 -15 -10 -26 0 -10 5 -19 10 -19 6 0 10 -20 10 -45 0
-33 4 -45 15 -45 8 0 15 -9 15 -19 0 -37 12 -51 41 -51 l29 0 0 80 0 80 70 0
70 0 0 -81 0 -80 33 3 c28 3 32 7 35 34 2 22 9 34 23 37 15 4 19 14 19 44 0
21 5 44 12 51 8 8 8 15 -3 28 -7 9 -12 32 -10 51 2 28 -1 35 -18 40 -12 3 -21
15 -23 32 -2 21 -9 27 -35 29 l-32 3 -3 -73 -3 -73 -65 0 -65 0 -3 73 -3 72
-30 0 c-25 0 -30 -5 -35 -30z"/>
<path d="M1387 4614 c-13 -13 -7 -42 10 -48 21 -8 36 6 31 30 -3 19 -29 30
-41 18z"/>
<path d="M3188 4610 c-77 -23 -128 -95 -128 -179 0 -61 13 -97 48 -134 120
-127 331 -44 332 130 0 53 -14 90 -48 127 -52 55 -133 78 -204 56z m72 -24 c0
-2 -7 -17 -15 -32 -19 -36 -19 -78 -1 -137 14 -46 14 -47 -12 -68 l-27 -20
-17 21 c-21 25 -38 83 -38 125 0 44 31 98 60 106 30 8 50 10 50 5z m105 -57
c23 -25 25 -30 10 -24 -11 4 -35 13 -52 19 -43 16 -48 23 -33 41 15 18 33 9
75 -36z m-245 -74 c0 -25 7 -62 15 -82 18 -43 16 -48 -12 -28 -26 18 -37 63
-28 115 9 54 25 51 25 -5z m229 26 c51 -26 65 -45 57 -77 -5 -19 -11 -24 -24
-19 -9 4 -36 12 -58 17 -43 9 -54 24 -54 76 0 28 27 29 79 3z m-16 -127 c11
-11 -24 -52 -59 -69 -23 -11 -45 -14 -69 -9 -35 6 -39 24 -6 24 10 0 35 13 57
30 38 28 64 37 77 24z m32 -34 c-10 -11 -20 -18 -23 -15 -7 6 18 35 31 35 5 0
2 -9 -8 -20z"/>
<path d="M4937 4559 c-28 -39 5 -79 52 -64 40 12 24 85 -19 85 -10 0 -25 -9
-33 -21z"/>
<path d="M1581 4546 c-19 -23 -9 -70 17 -81 27 -12 27 -17 2 -40 -19 -17 -42
-17 -97 0 -40 13 -27 -23 17 -45 46 -24 55 -47 13 -34 -16 5 -47 8 -71 7 -78
-1 -132 -80 -111 -159 13 -46 38 -70 88 -85 106 -32 197 82 145 182 -8 17 -14
35 -12 41 2 6 18 -23 35 -64 29 -67 31 -78 20 -109 -7 -19 -16 -40 -21 -48 -8
-13 18 -11 77 5 12 4 17 0 17 -14 0 -44 72 -102 127 -102 35 0 87 31 109 65
23 36 15 117 -16 150 -29 31 -81 48 -120 40 -26 -6 -30 -3 -36 21 -5 21 -2 31
17 45 13 10 31 19 40 19 25 0 24 71 -2 105 -25 31 -114 76 -135 68 -8 -3 -14
0 -14 6 0 6 6 11 13 12 19 1 -45 28 -69 29 -12 0 -27 -6 -33 -14z m129 -127
c8 0 -3 -6 -25 -13 -31 -9 -40 -17 -39 -34 1 -22 -11 -27 -40 -16 -25 9 42 75
69 69 11 -3 27 -5 35 -6z m-66 -93 c34 -14 34 -15 29 -67 -2 -30 -6 -55 -8
-57 -5 -5 -65 114 -65 128 0 13 4 13 44 -4z"/>
<path d="M5710 4534 c0 -7 -3 -19 -6 -28 -4 -10 -1 -16 9 -16 8 0 17 -5 19
-12 3 -8 11 -5 24 8 15 15 17 24 9 39 -11 22 -55 29 -55 9z"/>
<path d="M373 4523 c-7 -17 33 -67 42 -53 3 6 12 7 18 4 7 -4 9 -4 5 0 -3 4
-8 7 -10 5 -9 -7 -48 24 -47 39 1 16 2 16 6 0 5 -18 14 -22 46 -19 10 2 17 -5
18 -16 0 -10 3 -13 5 -7 3 6 1 21 -4 34 -6 17 -17 23 -42 24 -18 1 -35 -4 -37
-11z"/>
<path d="M425 4450 c-3 -6 1 -7 9 -4 18 7 21 14 7 14 -6 0 -13 -4 -16 -10z"/>
<path d="M373 4437 c-4 -8 -20 -22 -35 -32 -36 -23 -35 -32 2 -31 25 1 30 5
26 19 -3 14 -2 16 9 7 8 -7 20 -8 26 -4 8 4 9 3 5 -4 -4 -7 -3 -12 3 -12 19 0
23 21 7 45 -18 28 -31 31 -43 12z m37 -17 c0 -5 -8 -10 -17 -10 -15 0 -16 2
-3 10 19 12 20 12 20 0z"/>
<path d="M445 4400 c11 -19 18 -41 16 -49 -1 -7 2 -10 8 -6 6 3 11 1 11 -5 0
-13 46 10 76 39 12 11 24 17 28 14 3 -3 8 2 12 11 12 32 -6 29 -40 -7 -22 -24
-36 -32 -39 -24 -3 6 -6 3 -6 -8 -1 -15 -9 -10 -43 25 -41 44 -41 45 -23 10z"/>
<path d="M410 4369 c-23 -18 -24 -20 -8 -32 15 -12 15 -14 0 -24 -14 -9 -12
-10 11 -8 27 3 28 1 27 -33 -3 -58 -1 -69 9 -54 6 10 10 10 20 -1 9 -12 6 -16
-21 -21 -17 -3 -36 -2 -42 4 -7 7 -5 10 5 10 11 0 16 11 17 36 2 43 -5 57 -21
47 -7 -4 -14 -8 -17 -8 -12 -1 -44 -24 -34 -25 6 0 8 -13 5 -32 l-5 -33 -6 30
-6 30 -5 -32 c-3 -18 -2 -30 2 -27 4 2 10 0 14 -6 3 -5 1 -10 -5 -10 -6 0 -8
-5 -4 -12 5 -8 0 -7 -11 2 -11 9 -16 10 -11 3 4 -8 2 -13 -6 -13 -9 0 -9 -3 2
-10 13 -8 12 -10 -2 -10 -10 0 -18 -7 -18 -15 0 -15 -12 -16 -165 -19 -17 -1
-43 -9 -58 -19 -27 -18 -36 -37 -16 -37 5 0 8 4 5 9 -3 5 6 17 21 26 21 14 30
15 45 6 10 -6 35 -10 55 -10 38 1 38 1 8 9 -25 7 -22 8 20 7 66 -1 89 -9 50
-18 -26 -6 -24 -7 14 -6 40 0 46 4 83 50 29 38 36 52 26 58 -10 7 -10 9 1 9 8
0 23 -8 34 -17 10 -10 40 -29 65 -43 29 -16 48 -34 52 -50 4 -14 19 -43 34
-65 15 -22 30 -52 33 -66 4 -24 10 -27 52 -27 l46 -1 -31 13 c-17 8 -34 21
-37 31 -4 9 -12 13 -19 9 -8 -5 -9 -2 -5 10 5 11 3 15 -5 10 -8 -5 -9 -2 -5
10 4 10 -2 34 -13 56 -11 22 -20 45 -20 52 0 8 -27 40 -60 73 -59 58 -60 60
-60 115 0 39 -3 51 -10 40 -6 -9 -10 -10 -10 -3 0 7 7 16 16 21 13 7 13 10 2
20 -10 8 -20 6 -38 -9z m-10 -131 c0 -10 -7 -18 -15 -18 -18 0 -20 16 -2 24 9
5 9 7 -1 12 -6 3 -9 10 -6 16 8 13 24 -10 24 -34z m160 -125 c0 -8 9 -32 21
-54 11 -23 19 -43 16 -45 -7 -7 -36 32 -40 54 -2 11 -11 30 -22 42 -10 11 -15
20 -11 20 4 0 2 9 -4 21 -11 20 -12 20 -27 2 -13 -16 -14 -16 -9 0 3 9 0 17
-7 18 -9 0 -9 2 1 6 6 2 9 10 6 16 -4 7 12 -6 35 -28 22 -21 41 -45 41 -52z
m-90 41 c0 -2 -9 0 -20 6 -11 6 -20 13 -20 16 0 2 9 0 20 -6 11 -6 20 -13 20
-16z m-90 12 c0 -1 -11 -15 -25 -30 -28 -31 -34 -22 -7 12 15 19 32 29 32 18z"/>
<path d="M286 4372 c-8 -14 4 -72 16 -72 5 0 6 16 2 38 -8 43 -10 47 -18 34z"/>
<path d="M376 4364 c-3 -9 -2 -22 2 -31 6 -10 9 -5 9 16 0 35 -2 38 -11 15z"/>
<path d="M2840 4240 c0 -5 -6 -10 -14 -10 -24 0 -6 -38 20 -43 13 -2 24 -1 24
4 0 4 2 13 5 21 3 7 -4 19 -15 26 -12 7 -20 8 -20 2z"/>
<path d="M2581 4213 c-1 -24 -15 -31 -26 -13 -8 14 -25 13 -25 -2 0 -6 3 -8 7
-5 9 10 33 -13 33 -32 0 -9 -3 -12 -8 -6 -8 12 -27 13 -38 3 -4 -5 2 -8 14 -8
11 0 26 -8 32 -17 9 -15 11 -15 7 -2 -4 11 4 21 20 28 22 10 24 13 10 24 -8 7
-17 21 -20 32 -4 18 -5 18 -6 -2z m14 -32 c3 -5 2 -12 -3 -15 -5 -3 -9 1 -9 9
0 17 3 19 12 6z"/>
<path d="M2169 4126 c-19 -14 -13 -46 9 -46 10 0 22 8 29 18 15 24 -15 46 -38
28z"/>
<path d="M804 4095 c-4 -9 -2 -21 4 -27 16 -16 47 -5 47 17 0 26 -42 34 -51
10z"/>
<path d="M90 4070 c-18 -12 -2 -12 25 0 13 6 15 9 5 9 -8 0 -22 -4 -30 -9z"/>
<path d="M3440 4014 c-13 -33 -13 -425 0 -458 9 -24 13 -25 107 -28 l98 -3 -3
-32 -3 -33 106 0 106 0 -7 35 -6 35 94 0 c60 0 98 4 106 12 17 17 17 469 0
486 -9 9 -89 12 -300 12 l-288 0 -10 -26z m578 -226 l-3 -213 -75 -2 c-41 -1
-65 2 -52 5 13 4 23 12 23 17 -1 14 -321 19 -334 6 -7 -7 -2 -14 14 -20 19 -8
9 -10 -48 -10 l-73 -1 0 215 0 215 275 0 275 0 -2 -212z"/>
<path d="M3590 3765 l0 -135 155 0 155 0 0 135 0 135 -155 0 -155 0 0 -135z
m280 0 l0 -116 -127 3 -128 3 -1 105 c-1 58 0 108 3 113 2 4 60 7 129 7 l124
0 0 -115z"/>
<path d="M3681 3834 c-26 -21 -31 -33 -31 -69 0 -49 15 -68 25 -33 12 38 52
84 85 98 23 9 28 15 18 21 -25 16 -67 9 -97 -17z"/>
<path d="M3770 3819 c-38 -15 -68 -48 -81 -87 -10 -31 -9 -37 7 -49 10 -7 30
-13 46 -13 22 0 28 4 28 23 0 28 26 67 45 67 21 0 26 15 15 44 -10 28 -21 30
-60 15z"/>
<path d="M3796 3728 c-18 -25 -21 -48 -7 -48 11 0 51 48 51 61 0 17 -29 9 -44
-13z"/>
<path d="M5140 4026 c0 -8 4 -17 9 -20 7 -5 8 -41 0 -41 -9 0 -3 -45 7 -49 15
-6 78 106 67 118 -4 3 -24 6 -45 6 -26 0 -38 -4 -38 -14z m63 -13 c-4 -10 -9
-11 -19 -2 -16 13 -19 -2 -4 -17 7 -7 7 -11 -3 -11 -7 0 -14 10 -15 22 -1 18
4 23 22 23 17 0 23 -5 19 -15z"/>
<path d="M5081 4001 c-13 -10 -21 -24 -18 -32 4 -9 6 -7 6 6 1 15 3 17 10 6 7
-11 10 -9 16 8 3 12 11 19 16 16 5 -4 9 -1 9 4 0 16 -12 13 -39 -8z"/>
<path d="M5268 4000 c18 -17 21 -25 11 -36 -17 -20 -21 -17 -14 9 4 15 4 18
-3 8 -5 -7 -14 -11 -19 -8 -12 7 -46 -60 -38 -74 4 -5 12 -9 19 -9 18 0 58 45
49 55 -5 4 0 5 9 2 40 -14 27 42 -15 64 l-22 11 23 -22z m-3 -71 c-4 -5 -11
-9 -16 -9 -6 0 -7 4 -4 10 3 6 -1 7 -10 4 -11 -5 -14 -2 -9 10 5 12 10 13 25
5 11 -5 17 -14 14 -20z m-30 -19 c3 -5 2 -10 -4 -10 -5 0 -13 5 -16 10 -3 6
-2 10 4 10 5 0 13 -4 16 -10z"/>
<path d="M4698 3982 c-10 -2 -21 -16 -24 -30 -3 -15 -7 -33 -10 -40 -2 -8 1
-10 9 -6 9 5 9 4 0 -6 -7 -7 -9 -25 -6 -40 3 -15 0 -31 -6 -34 -28 -18 -8 -43
70 -89 45 -26 86 -47 91 -47 5 0 40 25 79 56 48 39 69 63 69 78 0 26 -38 66
-62 66 -9 0 -20 10 -24 23 -7 20 -8 19 -25 -18 -31 -71 -21 -83 36 -39 18 14
36 21 39 15 3 -5 2 -11 -3 -13 -5 -1 -3 -12 6 -23 15 -19 15 -19 8 4 -5 16 -4
21 4 17 15 -9 14 -49 -1 -64 -18 -18 -32 -14 -17 5 8 10 -14 -4 -48 -31 l-62
-48 -57 33 c-32 18 -54 26 -49 19 5 -8 3 -11 -4 -9 -7 3 -11 7 -9 10 2 3 -4
13 -13 22 -15 15 -15 23 -3 88 7 39 11 75 9 80 -3 4 4 7 15 6 11 -1 20 -5 20
-9 0 -4 7 -8 15 -8 13 0 22 -38 16 -72 -2 -14 11 -8 25 10 16 20 18 32 5 32
-5 0 -12 -8 -15 -17 -3 -10 -4 1 -3 25 2 23 2 42 2 42 0 0 -14 4 -30 8 -17 5
-38 6 -47 4z m188 -115 c-11 -4 -24 -13 -29 -20 -6 -7 -6 -4 -2 8 4 11 9 27
12 37 5 15 6 15 22 0 16 -16 16 -17 -3 -25z m-6 -127 c-25 -21 -51 -39 -58
-40 -6 0 -33 13 -60 30 -58 37 -47 40 14 4 l45 -26 46 36 c62 48 69 46 13 -4z"/>
<path d="M5104 3974 c3 -8 2 -12 -3 -9 -5 3 -12 1 -15 -4 -7 -10 19 -23 28
-14 10 11 7 43 -5 43 -6 0 -8 -7 -5 -16z"/>
<path d="M4780 3941 c0 -15 27 -20 40 -8 9 9 11 9 7 1 -8 -14 20 -27 28 -14 4
6 4 14 1 18 -7 11 -76 14 -76 3z"/>
<path d="M2017 3932 c-4 -6 -15 -9 -25 -7 -13 2 -17 -4 -17 -27 0 -23 4 -28
18 -24 9 2 15 1 12 -4 -3 -4 3 -14 13 -21 9 -7 14 -9 9 -4 -4 4 3 19 15 32 20
21 20 23 4 17 -11 -4 -17 -3 -14 2 8 14 -7 50 -15 36z"/>
<path d="M5041 3908 c-1 -44 7 -47 38 -14 20 21 21 24 5 30 -10 4 -21 1 -25
-5 -5 -8 -9 -6 -12 7 -2 10 -5 2 -6 -18z"/>
<path d="M5310 3918 c0 -6 -3 -8 -7 -5 -8 8 -43 -22 -43 -37 0 -6 7 -1 15 11
9 13 22 20 30 17 9 -4 15 0 15 10 0 9 -2 16 -5 16 -3 0 -5 -5 -5 -12z"/>
<path d="M5112 3889 c-7 -11 -24 -25 -37 -31 -14 -6 -25 -16 -25 -21 0 -5 7
-4 15 3 17 14 21 0 4 -17 -8 -8 -4 -17 12 -32 17 -15 25 -18 30 -9 4 7 5 16 3
20 -3 4 0 8 7 8 6 0 9 8 6 20 -3 11 -2 18 2 15 5 -2 13 7 19 20 10 21 8 26 -6
34 -14 7 -21 5 -30 -10z m-8 -46 c-1 -16 -2 -32 -3 -37 -1 -6 -6 -5 -12 1 -7
7 -8 17 -3 25 5 7 9 16 10 21 6 29 11 22 8 -10z"/>
<path d="M5287 3883 c-12 -11 -8 -22 13 -33 18 -9 20 -8 20 15 0 24 -18 34
-33 18z m23 -13 c0 -5 -4 -10 -10 -10 -5 0 -10 5 -10 10 0 6 5 10 10 10 6 0
10 -4 10 -10z"/>
<path d="M5172 3856 c-9 -21 -8 -23 9 -19 16 5 19 0 18 -28 l-1 -34 -7 30 c-4
20 -9 26 -14 17 -5 -7 -12 -10 -17 -7 -4 3 -6 -4 -3 -16 3 -11 15 -25 27 -29
l21 -9 -21 0 c-12 -1 -26 9 -33 22 -6 12 -9 14 -7 5 3 -10 0 -18 -7 -19 -7 0
-1 -5 13 -10 13 -6 34 -8 45 -5 17 4 20 13 19 56 -1 28 -5 54 -9 58 -5 4 -5 1
-1 -5 4 -8 1 -13 -8 -13 -10 0 -13 6 -10 15 10 24 -2 17 -14 -9z"/>
<path d="M5242 3813 c-2 -41 9 -56 24 -31 4 6 3 8 -4 4 -7 -4 -12 7 -15 31
l-4 38 -1 -42z"/>
<path d="M5276 3825 c16 -13 16 -14 2 -9 -11 4 -18 1 -18 -6 0 -6 5 -8 10 -5
6 3 10 0 10 -7 0 -7 5 -5 11 6 9 14 8 20 -2 27 -24 15 -34 10 -13 -6z"/>
<path d="M4629 3768 c0 -2 -3 -12 -6 -23 -19 -78 13 -132 86 -142 49 -7 94 17
84 44 -4 11 -3 14 5 9 7 -4 12 -3 12 2 0 4 -18 18 -40 31 -42 23 -56 14 -17
-12 22 -15 22 -15 2 -36 -14 -17 -28 -21 -56 -19 -20 2 -37 6 -38 10 -1 4 -8
20 -16 35 -10 19 -11 31 -3 40 7 9 7 13 -1 13 -6 0 -11 4 -11 9 0 12 38 2 69
-18 16 -10 23 -11 20 -3 -4 11 -88 68 -90 60z m26 -26 c-3 -3 -11 0 -18 7 -9
10 -8 11 6 5 10 -3 15 -9 12 -12z m120 -119 c-28 -20 -41 -16 -20 7 10 11 22
17 28 13 6 -4 3 -12 -8 -20z"/>
<path d="M750 3711 c0 -13 -9 -21 -28 -26 -34 -7 -86 -58 -101 -98 -6 -15 -16
-26 -23 -25 -7 2 -13 -4 -13 -12 0 -8 6 -15 14 -15 8 0 19 -13 24 -30 13 -40
54 -82 94 -97 21 -8 33 -19 33 -30 0 -10 7 -18 15 -18 8 0 15 9 15 19 0 12 11
23 32 30 43 15 75 47 88 87 8 23 18 34 31 34 10 0 19 7 19 15 0 8 -8 15 -18
15 -11 0 -23 13 -30 35 -14 38 -61 82 -98 91 -15 4 -24 13 -24 25 0 10 -7 19
-15 19 -8 0 -15 -9 -15 -19z m0 -65 c0 -26 -5 -36 -19 -41 -11 -3 -23 -15 -26
-26 -9 -26 -65 -27 -65 -1 0 25 27 61 64 83 42 26 46 24 46 -15z m106 -10 c41
-41 46 -76 10 -76 -32 0 -86 54 -86 86 0 36 35 31 76 -10z m-106 -56 c0 -11
-7 -20 -15 -20 -18 0 -19 12 -3 28 16 16 18 15 18 -8z m60 -11 c0 -5 -7 -9
-15 -9 -9 0 -15 9 -15 21 0 18 2 19 15 9 8 -7 15 -16 15 -21z m-94 -65 c62
-66 33 -115 -34 -59 -30 25 -56 78 -45 89 16 15 47 3 79 -30z m34 11 c0 -8 -4
-15 -9 -15 -5 0 -14 7 -21 15 -10 13 -9 15 9 15 12 0 21 -6 21 -15z m58 3 c-6
-18 -28 -21 -28 -4 0 9 7 16 16 16 9 0 14 -5 12 -12z m82 -3 c0 -36 -62 -95
-100 -95 -21 0 -10 53 18 80 30 31 82 40 82 15z"/>
<path d="M5288 3659 c-12 -7 -18 -22 -18 -48 0 -42 16 -68 45 -73 25 -4 35
-56 24 -135 -5 -35 -3 -75 4 -106 7 -34 8 -54 0 -65 -7 -13 -7 -21 3 -30 11
-10 14 -5 20 24 3 19 4 56 0 80 -3 24 -1 67 5 95 9 41 13 48 25 38 17 -14 19
-110 3 -126 -16 -16 -4 -42 26 -53 20 -8 25 -16 25 -45 0 -20 -5 -45 -10 -55
-8 -16 -7 -18 4 -14 8 3 19 -3 25 -14 8 -16 39 -23 59 -13 1 0 -6 18 -16 39
-23 45 -37 112 -23 112 5 0 16 3 25 6 14 5 16 -2 14 -42 -3 -46 -2 -49 24 -52
27 -3 64 15 105 51 24 21 43 16 43 -14 0 -22 13 -25 29 -5 9 11 9 25 1 55 -6
23 -14 41 -18 41 -4 0 -26 -10 -49 -22 -23 -12 -44 -20 -47 -17 -3 3 4 29 15
59 27 72 20 110 -29 147 -92 70 -150 103 -181 103 -19 0 -30 4 -26 10 8 13
-55 80 -75 80 -8 0 -23 -5 -32 -11z m197 -249 c7 -12 -12 -40 -26 -40 -5 0 -9
11 -9 25 0 25 23 35 35 15z"/>
<path d="M2389 3477 c-8 -7 -20 -12 -27 -9 -15 5 -42 -16 -42 -32 0 -6 5 -4
11 4 9 13 10 13 6 0 -2 -8 -12 -15 -22 -15 -26 0 -63 -57 -70 -110 -8 -52 3
-115 16 -94 5 8 9 9 9 3 0 -21 32 -25 51 -8 11 10 19 12 19 6 0 -15 -38 -35
-50 -27 -6 3 -10 0 -10 -7 0 -10 -3 -9 -11 2 -9 13 -10 13 -6 0 2 -8 11 -14
18 -12 7 2 19 -5 26 -14 21 -28 15 -39 -9 -19 -13 10 -6 1 15 -19 27 -26 42
-35 49 -28 7 7 18 7 35 -1 17 -8 20 -13 11 -19 -9 -5 -6 -8 10 -8 13 0 20 4
17 10 -3 6 1 10 10 10 9 0 13 -4 10 -10 -10 -16 47 -11 90 9 35 16 78 51 62
51 -3 0 5 11 18 24 48 48 47 170 -1 239 -28 39 -109 100 -89 66 7 -11 4 -11
-11 2 -25 20 -104 26 -104 7 0 -11 -2 -11 -9 0 -7 11 -11 11 -22 -1z m91 -6
c0 -13 56 -31 81 -26 16 3 18 1 10 -9 -8 -10 -6 -17 8 -30 11 -10 25 -31 31
-47 7 -16 14 -28 16 -26 7 7 -25 75 -38 79 -9 3 -9 6 -1 11 7 4 21 -8 34 -30
42 -67 32 -218 -15 -236 -11 -4 -9 3 6 29 26 44 30 75 12 92 -17 15 -18 8 -4
-19 8 -14 6 -28 -10 -58 -24 -49 -39 -59 -55 -38 -7 10 -26 17 -43 17 -24 0
-35 -6 -45 -27 -8 -16 -12 -34 -10 -40 6 -16 -40 -17 -69 -2 -16 8 -23 8 -30
-2 -8 -11 -9 -11 -5 1 2 8 -7 27 -20 41 l-24 27 26 26 c25 25 31 63 10 59 -6
-1 -16 3 -22 9 -7 6 -20 8 -28 4 -8 -3 -15 -1 -15 5 0 7 12 9 29 7 17 -2 28
-1 25 4 -3 4 -16 8 -30 8 -30 0 -31 23 -3 69 27 45 59 70 88 71 14 0 33 8 43
17 18 16 18 16 12 -3 -7 -17 -6 -17 9 -5 9 7 14 17 11 22 -3 5 0 9 5 9 6 0 11
-4 11 -9z m-192 -106 c-11 -20 -18 -44 -15 -55 3 -11 1 -23 -5 -26 -13 -8 43
-45 56 -37 6 3 4 -2 -6 -12 -17 -18 -44 -12 -32 7 5 7 -1 9 -16 5 -22 -6 -23
-4 -17 48 5 54 34 118 48 109 5 -2 -1 -20 -13 -39z m59 -127 c-3 -8 -6 -5 -6
6 -1 11 2 17 5 13 3 -3 4 -12 1 -19z m196 -82 c3 -8 18 -16 34 -18 l28 -3 -37
-23 c-40 -25 -98 -37 -98 -20 0 5 7 7 16 4 16 -6 84 18 84 30 0 3 -8 3 -17 0
-10 -4 -14 -4 -11 0 4 3 1 13 -7 20 -17 17 -29 18 -19 2 5 -8 1 -8 -12 2 -10
8 -21 16 -23 17 -2 2 9 3 26 3 18 0 33 -6 36 -14z m-44 -24 c7 -14 6 -19 -4
-19 -7 0 -11 7 -7 15 3 10 1 13 -6 8 -7 -4 -12 -2 -12 3 0 17 18 13 29 -7z"/>
<path d="M2463 3371 c18 -7 18 -8 1 -21 -16 -13 -17 -13 -10 0 7 11 4 11 -9
-2 -16 -15 -16 -21 -5 -47 10 -26 18 -31 46 -31 27 0 36 6 49 30 14 27 14 31
0 36 -8 3 -12 10 -9 15 3 5 2 9 -3 8 -4 -1 -15 -1 -23 1 -11 1 -9 4 5 10 16 7
11 9 -20 9 -27 0 -34 -3 -22 -8z m57 -53 c0 -12 -6 -9 -26 13 -19 22 -19 22 4
8 12 -8 22 -17 22 -21z m-35 -1 c5 5 3 0 -4 -9 -11 -15 -10 -17 8 -13 11 2 23
0 26 -6 4 -5 -6 -9 -21 -9 -27 0 -53 24 -54 49 0 11 4 11 18 -2 10 -10 23 -14
27 -10z"/>
<path d="M3413 3380 c-18 -7 -23 -17 -23 -45 0 -30 -3 -35 -22 -35 -13 -1 -34
-7 -48 -15 -14 -8 -38 -14 -54 -15 -16 0 -45 -12 -64 -27 -23 -17 -37 -23 -40
-15 -5 17 -32 15 -32 -2 0 -23 36 -28 70 -11 44 23 48 13 13 -32 -47 -59 -53
-78 -49 -135 l3 -53 -76 3 c-42 2 -82 8 -90 12 -23 12 -81 -28 -81 -56 0 -13
1 -24 3 -24 1 0 26 9 56 20 53 19 54 19 110 0 119 -40 128 -38 150 33 10 30
17 37 38 37 14 0 56 16 93 36 52 27 73 33 87 26 10 -5 63 -12 119 -15 l101 -5
11 32 c7 18 12 41 12 51 0 16 -5 14 -31 -11 -27 -26 -37 -29 -88 -27 -32 1
-75 9 -97 18 -39 16 -119 13 -171 -6 -13 -5 -23 -6 -23 -3 0 10 44 43 57 44 7
0 17 9 22 19 10 17 14 18 48 5 21 -7 46 -13 57 -14 10 0 34 -9 52 -21 29 -18
35 -19 40 -5 8 21 -3 36 -26 36 -28 0 -131 52 -127 65 2 5 14 12 28 13 44 7
63 78 29 112 -22 22 -25 23 -57 10z"/>
<path d="M1334 3262 c-15 -9 -3 -36 17 -40 21 -3 34 29 17 40 -16 10 -20 10
-34 0z"/>
<path d="M2956 3214 c-9 -22 17 -49 39 -40 10 3 15 15 13 28 -4 29 -42 37 -52
12z"/>
<path d="M4612 3157 c4 -21 0 -32 -19 -46 l-24 -19 30 -7 c21 -4 31 -14 36
-33 l7 -27 16 22 c9 11 27 24 40 28 24 7 29 20 11 31 -6 3 -9 19 -5 35 6 32 4
34 -25 19 -14 -8 -25 -6 -45 7 l-27 17 5 -27z"/>
<path d="M2770 3155 c-21 -25 3 -67 37 -63 34 4 52 31 37 56 -15 23 -57 27
-74 7z"/>
<path d="M710 3073 c0 -16 2 -16 11 -3 8 11 12 12 16 2 2 -6 10 -9 16 -6 8 5
8 3 0 -6 -9 -9 -9 -17 -2 -26 7 -8 6 -14 -2 -20 -8 -5 -9 -3 -4 6 5 8 4 11 -3
6 -14 -8 -4 -36 13 -36 9 0 13 16 13 50 0 48 -1 50 -29 50 -21 0 -29 -5 -29
-17z"/>
<path d="M665 3062 c-5 -4 -17 -16 -25 -27 -14 -19 -14 -19 4 -5 18 14 19 13
14 -1 -4 -11 2 -25 16 -38 26 -25 46 -27 46 -6 0 8 -8 15 -17 15 -12 0 -14 3
-6 8 7 4 9 13 4 21 -5 7 -13 11 -19 7 -6 -3 -13 -2 -16 3 -4 5 -1 13 5 17 8 5
9 3 4 -6 -5 -9 -4 -11 3 -6 13 8 16 26 5 26 -5 0 -12 -4 -18 -8z"/>
<path d="M791 3038 c2 -31 2 -31 6 -5 2 15 8 25 13 22 5 -3 7 -13 4 -23 -5
-13 -4 -14 4 -3 8 11 10 11 14 0 3 -8 8 -11 11 -8 10 8 -22 49 -39 49 -9 0
-14 -10 -13 -32z"/>
<path d="M727 3053 c-10 -9 -9 -23 1 -23 5 0 9 7 9 15 0 17 -1 18 -10 8z"/>
<path d="M1140 3039 c0 -5 -4 -8 -8 -5 -4 2 -14 0 -22 -6 -12 -8 -11 -9 5 -4
15 4 13 0 -8 -15 -23 -17 -26 -24 -15 -36 10 -13 13 -13 20 4 4 11 6 2 4 -24
-2 -26 3 -51 11 -63 8 -11 12 -24 8 -29 -3 -5 -1 -12 5 -16 6 -4 8 -10 5 -15
-3 -5 5 -16 17 -24 21 -15 23 -15 29 1 5 16 7 16 17 -3 9 -17 7 -20 -11 -21
-12 -1 -28 4 -37 12 -17 15 -45 5 -45 -16 0 -7 -6 -14 -14 -17 -9 -3 -11 0 -5
9 6 12 5 12 -10 0 -9 -8 -14 -21 -11 -30 3 -8 3 -13 0 -9 -10 10 -58 -33 -182
-163 -18 -19 -30 -38 -27 -42 4 -4 2 -7 -3 -7 -6 0 -14 5 -16 10 -3 6 -4 5 -3
-2 6 -25 54 -7 97 35 85 81 134 121 149 119 10 -1 11 1 3 4 -28 12 -11 20 22
10 34 -10 49 -40 24 -48 -5 -2 -8 -10 -4 -19 7 -18 42 -22 51 -7 4 6 3 8 -3 5
-11 -7 -28 22 -18 31 3 3 5 -1 5 -9 0 -12 2 -12 9 0 5 8 7 20 4 28 -3 7 1 13
7 13 9 0 7 8 -6 23 l-19 22 22 -19 c19 -16 21 -22 10 -34 -10 -13 -9 -15 5 -9
10 3 20 2 23 -4 4 -5 11 -6 17 -3 7 4 8 2 4 -4 -4 -7 -18 -9 -32 -6 -14 4 -24
2 -24 -5 0 -6 5 -11 11 -11 5 0 7 -5 3 -11 -3 -6 6 -3 21 7 29 19 55 68 55
103 0 32 22 71 39 69 8 -2 17 5 19 15 2 10 -3 17 -12 17 -9 0 -16 7 -16 15 0
25 56 18 123 -17 34 -18 65 -31 68 -30 4 1 10 -9 13 -22 3 -13 16 -26 28 -29
l23 -6 -24 20 c-16 13 -19 19 -8 19 8 0 20 -7 27 -15 7 -8 17 -15 22 -15 17 0
-12 29 -35 36 -12 3 -35 18 -51 33 -16 14 -26 20 -21 12 5 -9 3 -12 -6 -9 -8
3 -14 10 -14 18 0 7 -37 33 -83 57 -71 39 -85 43 -99 32 -15 -12 -16 -12 -10
4 4 11 1 17 -9 17 -9 0 -12 -5 -8 -12 6 -10 4 -10 -7 0 -18 17 -30 15 -22 -5
4 -11 3 -14 -5 -9 -16 9 -15 33 1 39 10 4 10 6 0 6 -7 1 -13 10 -13 21 0 29
-27 36 -53 14 -22 -19 -22 -19 -4 2 19 23 22 34 7 34 -5 0 -10 -5 -10 -11z
m47 -35 c-3 -3 -12 -4 -19 -1 -8 3 -5 6 6 6 11 1 17 -2 13 -5z m-13 -39 c16
-12 17 -15 4 -15 -9 0 -18 -9 -21 -20 -3 -11 -11 -20 -19 -20 -10 0 -9 3 2 10
8 5 11 10 6 10 -6 0 -5 5 2 12 17 17 15 31 -4 24 -8 -3 -12 -2 -9 4 8 13 16
12 39 -5z m46 -57 c0 -12 -6 -9 -26 13 -19 22 -19 22 4 8 12 -8 22 -17 22 -21z
m100 17 c14 -8 19 -14 11 -15 -12 0 -12 -3 -3 -12 10 -10 15 -10 20 -1 5 9 22
4 57 -17 28 -16 44 -30 37 -30 -14 0 -54 21 -63 34 -4 5 -15 6 -24 2 -21 -7
-48 12 -38 27 4 6 0 8 -11 4 -9 -4 -15 -3 -11 2 3 5 -1 12 -7 14 -7 3 -8 6 -3
6 6 0 21 -6 35 -14z m-136 -13 c3 -5 -1 -9 -9 -9 -8 0 -12 4 -9 9 3 4 7 8 9 8
2 0 6 -4 9 -8z m96 4 c0 -2 -7 -6 -15 -10 -8 -3 -15 -1 -15 4 0 6 7 10 15 10
8 0 15 -2 15 -4z m25 -28 c5 4 5 1 1 -6 -4 -7 -12 -9 -18 -6 -5 4 -2 -5 7 -20
10 -14 21 -26 26 -26 5 0 9 -5 9 -12 0 -9 -3 -9 -12 0 -10 10 -17 3 -34 -30
l-22 -43 3 40 c2 22 3 57 4 79 1 31 4 36 14 27 8 -6 18 -7 22 -3z m-138 -21
c-6 -19 -23 -18 -23 2 0 11 5 17 14 14 7 -3 11 -10 9 -16z m20 -22 c-7 -14
-16 -25 -20 -25 -8 0 -2 14 16 38 15 19 16 14 4 -13z m-39 -94 c-7 -2 -6 -6 1
-11 18 -11 2 -37 -21 -36 -22 1 -39 26 -18 26 6 0 8 -5 4 -12 -5 -8 -2 -9 10
-5 10 4 20 7 23 7 4 0 -2 10 -13 22 -10 12 -13 18 -5 13 10 -6 12 -2 6 16 -7
23 -7 23 8 4 10 -12 12 -21 5 -24z m53 -18 c13 -16 12 -17 -3 -4 -10 7 -18 15
-18 17 0 8 8 3 21 -13z m63 -18 c-4 -8 -7 -15 -9 -15 -2 0 -5 7 -9 15 -3 9 0
15 9 15 9 0 12 -6 9 -15z m-211 -41 c-7 -20 -18 -17 -20 5 -1 13 3 18 12 15 8
-3 11 -12 8 -20z m-48 -44 c-10 -11 -21 -18 -23 -15 -6 6 31 44 37 39 2 -2 -4
-13 -14 -24z m-38 -10 c-1 -23 -49 -73 -73 -76 -9 -1 -13 1 -9 4 4 4 12 7 18
7 9 0 34 34 53 73 9 18 13 15 11 -8z"/>
<path d="M1283 2846 c3 -7 0 -20 -6 -27 -10 -11 -9 -11 5 0 15 11 15 41 1 41
-3 0 -3 -6 0 -14z"/>
<path d="M5196 3034 c-8 -21 -7 -31 2 -18 4 7 15 8 27 3 18 -7 18 -8 -5 -10
-14 -1 -32 -2 -40 -1 -8 0 -18 -5 -22 -11 -6 -9 -8 -8 -8 1 0 10 -11 12 -47 7
-70 -9 -94 -16 -87 -26 3 -5 0 -10 -5 -10 -6 -1 -14 -2 -19 -3 -4 0 -23 -13
-42 -28 -26 -20 -32 -30 -24 -38 9 -9 14 -9 19 1 5 8 4 10 -3 5 -7 -4 -12 -2
-12 3 0 6 5 11 11 11 5 0 27 11 47 25 20 14 45 25 55 25 10 0 16 4 13 8 -3 5
0 9 7 9 7 0 13 -8 13 -18 0 -10 -2 -16 -5 -14 -2 3 -10 -4 -18 -15 -8 -11 -20
-20 -28 -20 -8 0 -16 -4 -19 -9 -3 -4 7 -7 22 -5 15 2 19 1 9 -2 -11 -4 -16
-12 -13 -21 3 -8 -1 -24 -9 -36 -21 -30 -19 -40 5 -27 14 7 20 7 20 0 0 -5 -4
-10 -10 -10 -5 0 -10 -4 -10 -10 0 -11 28 -9 48 4 8 4 24 -2 43 -18 17 -14 36
-26 42 -26 7 0 1 8 -13 18 -24 16 -43 61 -21 47 6 -3 11 -13 11 -21 0 -9 5
-12 12 -8 7 4 8 3 4 -4 -6 -11 5 -16 25 -14 4 1 6 -9 5 -23 -1 -16 -4 -20 -13
-14 -8 7 -10 5 -6 -10 3 -12 10 -18 16 -14 6 4 8 0 4 -11 -4 -11 -3 -15 4 -11
6 4 9 1 8 -6 -4 -21 22 -93 30 -82 3 5 19 9 35 9 18 0 31 6 34 15 2 8 0 10 -5
4 -4 -5 -18 -10 -29 -11 -16 0 -21 6 -21 23 0 26 -22 83 -32 83 -4 0 -8 11 -9
26 -3 40 -20 64 -40 57 -14 -6 -15 -4 -4 9 10 13 10 17 0 21 -9 4 -4 14 15 31
40 37 54 33 62 -16 4 -24 16 -54 26 -67 11 -13 19 -32 19 -41 0 -10 7 -23 15
-30 13 -11 19 -7 17 12 -1 3 6 12 15 20 15 11 16 10 11 -9 -4 -13 -2 -23 3
-23 5 0 9 14 9 31 0 25 -3 29 -13 21 -8 -7 -18 -7 -27 -2 -12 8 -11 10 5 11
11 0 14 3 7 6 -7 3 -19 0 -26 -6 -11 -9 -15 -4 -20 21 -5 27 -9 30 -17 18 -7
-11 -8 -5 -2 20 4 19 7 55 6 80 -1 25 -2 64 -2 88 0 38 -3 42 -25 42 -13 0
-27 -7 -30 -16z m41 0 c-3 -3 -12 -4 -19 -1 -8 3 -5 6 6 6 11 1 17 -2 13 -5z
m-103 -42 c3 -5 -1 -9 -9 -9 -8 0 -12 4 -9 9 3 4 7 8 9 8 2 0 6 -4 9 -8z m82
-19 c-1 -7 -5 -16 -9 -19 -12 -13 -8 -22 14 -27 17 -5 20 -2 16 14 -3 10 -1
17 4 13 11 -6 11 -51 0 -79 -7 -17 -8 -17 -13 7 -3 17 -1 25 5 21 6 -4 7 -1 2
6 -4 7 -15 11 -24 8 -12 -3 -17 3 -19 19 -1 13 3 24 9 24 5 0 7 5 4 11 -5 7
-13 5 -24 -5 -10 -9 -22 -16 -27 -16 -5 0 -1 5 9 11 9 6 15 14 13 18 -3 4 6 7
18 7 14 0 23 -6 22 -13z m-112 -31 c3 -5 -1 -9 -9 -9 -8 0 -12 4 -9 9 3 4 7 8
9 8 2 0 6 -4 9 -8z m-16 -29 c-1 -5 4 -19 11 -32 9 -16 10 -22 1 -19 -6 2 -11
7 -10 12 1 5 -6 14 -15 19 -14 8 -15 11 -4 18 17 11 20 11 17 2z m43 -20 c-11
-5 -11 -7 0 -14 9 -6 10 -9 2 -9 -17 0 -24 15 -17 35 5 12 9 14 18 4 8 -8 7
-13 -3 -16z m-66 -24 c-4 -5 -1 -9 6 -9 7 0 10 -2 7 -5 -10 -11 -37 7 -31 21
3 8 9 11 14 8 5 -3 7 -10 4 -15z m68 -23 c4 -10 1 -13 -8 -9 -8 3 -12 9 -9 14
7 12 11 11 17 -5z m-32 -33 c13 -16 12 -17 -3 -4 -10 7 -18 15 -18 17 0 8 8 3
21 -13z m199 -68 c-5 -6 -6 -16 -2 -20 4 -5 1 -5 -5 -1 -19 11 -17 47 2 40 11
-5 13 -10 5 -19z m-81 -72 c12 -41 -2 -61 -16 -23 -6 17 -7 28 -2 24 12 -7 11
3 -2 29 -9 16 -9 19 0 11 6 -6 15 -24 20 -41z"/>
<path d="M3782 3028 c-17 -17 -15 -44 4 -63 19 -19 11 -45 -16 -52 -12 -3 -23
-17 -26 -32 -3 -14 -9 -43 -14 -64 -10 -46 3 -57 35 -27 23 22 23 22 30 1 3
-11 1 -29 -4 -40 -6 -11 -11 -33 -11 -49 0 -37 38 -163 55 -181 15 -15 35 -7
35 15 0 8 4 13 9 10 5 -4 14 -39 21 -79 19 -117 19 -117 40 -117 20 0 28 24
11 34 -8 5 -17 97 -25 257 -3 71 -2 76 15 72 20 -6 26 11 9 22 -16 10 -38 69
-46 120 -5 36 -12 49 -30 57 -25 12 -41 48 -30 67 10 15 -15 61 -34 61 -9 0
-21 -5 -28 -12z"/>
<path d="M626 2993 c-9 -9 -7 -41 3 -47 5 -4 20 -1 33 4 22 10 22 10 -4 7 -23
-4 -26 -2 -18 14 10 17 -1 35 -14 22z"/>
<path d="M831 2987 c-1 -12 -6 -16 -13 -11 -10 5 -10 4 -1 -6 16 -17 26 -8 20
17 -4 17 -5 17 -6 0z"/>
<path d="M852 2970 c0 -19 2 -27 5 -17 2 9 2 25 0 35 -3 9 -5 1 -5 -18z"/>
<path d="M990 2989 c0 -5 5 -7 10 -4 6 3 10 8 10 11 0 2 -4 4 -10 4 -5 0 -10
-5 -10 -11z"/>
<path d="M962 2978 c-15 -15 -15 -51 0 -66 18 -18 53 -14 73 8 15 17 16 24 6
46 -10 22 -14 24 -27 13 -9 -7 -25 -14 -36 -16 -17 -3 -19 -1 -8 12 15 18 9
20 -8 3z m68 -53 c-14 -17 -51 -20 -47 -4 1 7 11 21 22 33 19 20 21 20 29 4 6
-11 4 -23 -4 -33z m-63 3 c-3 -8 -6 -5 -6 6 -1 11 2 17 5 13 3 -3 4 -12 1 -19z"/>
<path d="M1007 2943 c-10 -10 -8 -23 4 -23 5 0 8 4 5 9 -4 5 0 12 6 14 7 3 8
6 2 6 -6 1 -14 -2 -17 -6z"/>
<path d="M2576 2951 l-25 -26 28 -137 c23 -112 26 -138 15 -142 -8 -3 -14 -11
-14 -18 0 -7 -22 -23 -49 -36 -65 -29 -126 -124 -72 -109 16 4 19 -1 17 -34
-1 -22 1 -39 6 -39 4 0 8 -6 8 -13 0 -7 14 -27 30 -46 17 -18 28 -36 25 -41
-3 -5 -1 -11 5 -15 5 -3 10 1 10 9 0 9 3 17 8 17 20 4 58 10 70 11 6 1 12 5
12 10 0 4 6 8 14 8 8 0 20 14 28 30 7 17 17 29 23 27 14 -5 12 -42 -2 -40 -7
2 -10 -3 -7 -11 5 -14 -43 -52 -53 -42 -4 3 -12 1 -19 -5 -8 -6 -20 -9 -29 -6
-8 4 -17 1 -21 -5 -11 -18 76 -2 105 19 47 36 65 70 65 126 1 42 -5 62 -26 94
-15 23 -26 52 -26 64 1 16 34 57 96 120 92 94 94 98 88 133 -4 19 -11 38 -17
41 -5 4 -68 24 -139 44 l-129 39 -25 -27z m167 -82 c37 -11 67 -23 67 -27 0
-11 -139 -147 -144 -141 -3 3 -12 39 -21 80 -8 41 -17 85 -20 98 -7 27 -7 27
118 -10z m-90 -250 c20 -5 37 -15 37 -21 0 -6 -9 -8 -22 -4 -13 4 -35 9 -50
12 -16 4 -28 10 -28 15 0 12 17 11 63 -2z m-73 -29 c0 -5 1 -13 3 -17 2 -7
-28 -14 -63 -14 -14 0 -19 -3 -12 -6 18 -7 4 -23 -20 -23 -21 0 -21 0 3 26 13
14 31 23 41 21 9 -3 19 1 22 9 6 16 26 19 26 4z m124 -53 c-1 -9 4 -13 12 -10
9 3 15 -2 16 -13 6 -78 6 -104 -2 -104 -11 0 -24 39 -16 47 3 4 1 12 -5 20 -9
9 -8 13 0 13 6 0 -2 13 -18 29 -19 19 -26 31 -18 34 19 8 32 1 31 -16z m-218
-32 c-22 -17 -36 -19 -36 -7 0 14 12 22 34 22 21 -1 21 -1 2 -15z m129 -48
c-8 -26 -11 -55 -8 -63 5 -13 1 -15 -18 -9 -32 10 -31 8 -14 41 17 34 19 54 5
54 -19 0 -10 21 13 29 33 13 38 1 22 -52z"/>
<path d="M760 2960 c0 -19 32 -90 41 -90 5 0 18 9 30 21 l21 21 -34 29 c-34
29 -58 37 -58 19z m60 -41 c0 -6 -4 -7 -10 -4 -5 3 -10 11 -10 16 0 6 5 7 10
4 6 -3 10 -11 10 -16z m-11 -34 c0 -5 -6 -1 -14 9 -8 11 -15 24 -15 30 0 5 7
1 15 -10 8 -10 14 -23 14 -29z"/>
<path d="M135 2930 c-13 -14 -27 -20 -42 -17 -22 4 -23 3 -8 -19 11 -17 12
-30 5 -48 -9 -24 -8 -24 24 -19 20 3 36 1 40 -6 12 -19 26 -12 26 14 0 15 9
29 22 36 l23 12 -26 9 c-14 5 -30 20 -35 34 l-9 26 -20 -22z"/>
<path d="M712 2933 c-2 -34 9 -63 23 -63 23 0 27 18 10 50 -17 34 -31 39 -33
13z m38 -48 c0 -5 -5 -3 -10 5 -5 8 -10 20 -10 25 0 6 5 3 10 -5 5 -8 10 -19
10 -25z"/>
<path d="M5513 2927 c14 -21 13 -23 -6 -24 -11 -1 -26 -8 -33 -15 -19 -21 -52
-105 -45 -115 10 -16 50 -34 61 -28 5 3 11 1 15 -5 3 -5 -1 -10 -9 -10 -9 0
-16 -6 -16 -12 0 -8 -7 -5 -15 6 -8 11 -15 15 -15 9 0 -6 7 -16 15 -23 13 -10
19 -10 34 4 19 17 39 7 27 -13 -3 -5 1 -15 10 -22 14 -11 16 -10 13 11 -2 14
0 30 4 37 4 6 2 15 -4 19 -7 4 -9 3 -5 -4 3 -6 2 -13 -3 -17 -5 -3 -13 1 -18
8 -10 17 -54 47 -68 47 -5 0 -3 -5 5 -11 12 -8 12 -10 1 -7 -8 2 -15 11 -17
19 -1 13 5 15 40 8 22 -5 45 -8 49 -9 5 0 5 -5 1 -12 -4 -7 -3 -8 5 -4 18 12
5 23 -44 35 -25 6 -45 16 -45 22 0 6 5 7 13 2 23 -14 37 -11 49 10 14 26 13
28 -15 45 -14 8 -15 11 -4 8 9 -3 17 -1 17 4 0 5 7 7 15 4 10 -4 18 2 24 17
11 31 6 39 -26 39 -24 0 -25 -1 -10 -23z m-28 -56 c3 -5 1 -12 -5 -16 -5 -3
-10 1 -10 9 0 18 6 21 15 7z m19 -35 c-3 -8 -12 -12 -21 -9 -12 5 -12 7 -1 14
20 13 28 11 22 -5z"/>
<path d="M655 2919 c-20 -9 -20 -9 0 -6 15 3 21 -1 21 -14 0 -15 -3 -16 -16
-6 -13 11 -13 10 -1 -5 20 -26 31 -22 31 12 0 32 -4 34 -35 19z"/>
<path d="M3392 2874 c-18 -12 -23 -24 -20 -47 2 -25 -2 -34 -24 -47 -38 -21
-65 -2 -92 65 -2 6 -8 6 -16 -2 -9 -9 -6 -21 15 -58 15 -26 36 -52 46 -58 41
-26 13 -78 -54 -102 -37 -13 -73 -39 -124 -88 -55 -53 -80 -70 -103 -71 -40
-1 -38 -12 6 -31 35 -14 35 -14 73 23 86 83 98 91 158 101 32 5 59 8 59 7 1 0
10 -28 21 -60 l19 -60 71 -21 c41 -13 88 -36 110 -54 35 -29 38 -30 41 -12 4
25 -27 70 -48 71 -8 0 -33 9 -55 19 -22 11 -47 22 -56 25 -18 5 -34 91 -23
120 3 9 1 30 -6 47 -12 28 -11 33 13 56 22 22 28 24 41 13 18 -14 21 -40 6
-40 -13 0 -13 -27 0 -35 5 -3 16 8 25 24 14 29 14 32 -15 81 -36 61 -36 67 -7
90 18 15 20 22 11 37 -15 24 -44 27 -72 7z"/>
<path d="M707 2858 c2 -5 17 -8 34 -8 16 0 29 3 29 8 0 4 -15 7 -34 7 -19 0
-32 -3 -29 -7z"/>
<path d="M4985 2789 c-53 -47 -125 -99 -140 -99 -11 0 -15 -5 -11 -16 3 -9 6
-32 6 -52 l1 -37 13 30 c7 17 28 46 47 64 24 24 27 31 11 22 -26 -14 -30 -1
-4 15 19 12 38 13 35 2 -2 -4 4 -5 13 -1 11 4 12 9 5 16 -17 17 -13 27 9 27
11 0 20 4 20 10 0 5 7 7 15 4 14 -6 13 -8 -2 -19 -10 -7 -22 -11 -27 -8 -5 4
-6 1 -2 -6 5 -8 16 -5 37 9 16 12 29 24 29 27 0 4 -3 3 -7 0 -3 -4 -13 -1 -22
7 -10 8 -20 10 -26 5z m-111 -118 c3 -5 -1 -14 -9 -21 -10 -9 -15 -9 -15 -1 0
6 6 11 13 12 6 0 3 4 -8 9 -16 7 -17 9 -3 9 9 1 19 -3 22 -8z"/>
<path d="M5635 2740 c-3 -6 1 -7 9 -4 18 7 21 14 7 14 -6 0 -13 -4 -16 -10z"/>
<path d="M5726 2718 c10 -14 21 -24 23 -22 3 3 -6 15 -18 27 l-24 22 19 -27z"/>
<path d="M5601 2717 c2 -1 13 -9 24 -17 19 -14 19 -14 6 3 -7 9 -18 17 -24 17
-6 0 -8 -1 -6 -3z"/>
<path d="M5502 2698 c-14 -14 -16 -38 -3 -38 5 0 11 11 13 25 6 29 6 29 -10
13z"/>
<path d="M1768 2670 c-5 -17 -248 -55 -269 -41 -10 6 -20 7 -23 3 -3 -6 5 -66
29 -199 9 -49 29 -42 22 7 -3 22 -4 40 -4 40 1 1 60 11 130 24 l129 22 9 -23
c5 -14 9 -31 9 -39 0 -8 5 -14 11 -14 12 0 9 42 -12 168 -10 57 -22 77 -31 52z
m-38 -45 c0 -8 -4 -15 -10 -15 -5 0 -10 7 -10 15 0 8 5 15 10 15 6 0 10 -7 10
-15z m40 5 c0 -5 -4 -10 -10 -10 -5 0 -10 5 -10 10 0 6 5 10 10 10 6 0 10 -4
10 -10z m-80 -8 c0 -13 -12 -22 -22 -16 -10 6 -1 24 13 24 5 0 9 -4 9 -8z
m-80 -17 c0 -8 -7 -15 -15 -15 -16 0 -20 12 -8 23 11 12 23 8 23 -8z m40 5 c0
-5 -4 -10 -9 -10 -6 0 -13 5 -16 10 -3 6 1 10 9 10 9 0 16 -4 16 -10z m-82
-11 c-2 -6 -8 -10 -13 -10 -5 0 -11 4 -13 10 -2 6 4 11 13 11 9 0 15 -5 13
-11z m-38 -9 c0 -5 -7 -10 -15 -10 -8 0 -15 5 -15 10 0 6 7 10 15 10 8 0 15
-4 15 -10z m210 -5 c0 -8 -7 -15 -15 -15 -16 0 -20 12 -8 23 11 12 23 8 23 -8z
m40 5 c0 -5 -7 -10 -15 -10 -8 0 -15 5 -15 10 0 6 7 10 15 10 8 0 15 -4 15
-10z m-82 -11 c-2 -6 -8 -10 -13 -10 -5 0 -11 4 -13 10 -2 6 4 11 13 11 9 0
15 -5 13 -11z m-86 -14 c0 -5 -5 -11 -11 -13 -6 -2 -11 4 -11 13 0 9 5 15 11
13 6 -2 11 -8 11 -13z m48 5 c0 -5 -7 -10 -15 -10 -8 0 -15 5 -15 10 0 6 7 10
15 10 8 0 15 -4 15 -10z m-82 -11 c-2 -6 -8 -10 -13 -10 -5 0 -11 4 -13 10 -2
6 4 11 13 11 9 0 15 -5 13 -11z m-43 -9 c3 -5 -1 -10 -9 -10 -9 0 -16 5 -16
10 0 6 4 10 9 10 6 0 13 -4 16 -10z m207 -5 c0 -5 -5 -11 -11 -13 -6 -2 -11 4
-11 13 0 9 5 15 11 13 6 -2 11 -8 11 -13z m38 5 c0 -5 -4 -10 -10 -10 -5 0
-10 5 -10 10 0 6 5 10 10 10 6 0 10 -4 10 -10z m-75 -10 c3 -5 -1 -10 -9 -10
-9 0 -16 5 -16 10 0 6 4 10 9 10 6 0 13 -4 16 -10z m-85 -15 c0 -8 -4 -15 -10
-15 -5 0 -10 7 -10 15 0 8 5 15 10 15 6 0 10 -7 10 -15z m40 5 c0 -5 -4 -10
-10 -10 -5 0 -10 5 -10 10 0 6 5 10 10 10 6 0 10 -4 10 -10z m-80 -9 c0 -6 -4
-13 -10 -16 -5 -3 -10 1 -10 9 0 9 5 16 10 16 6 0 10 -4 10 -9z m-40 -11 c0
-5 -4 -10 -9 -10 -6 0 -13 5 -16 10 -3 6 1 10 9 10 9 0 16 -4 16 -10z"/>
<path d="M5539 2638 c4 -13 7 -31 5 -41 -2 -14 1 -16 11 -7 10 8 11 17 2 40
-6 17 -15 30 -19 30 -4 0 -4 -10 1 -22z"/>
<path d="M5600 2643 c0 -5 10 -18 23 -29 l22 -19 -20 25 c-11 14 -21 27 -22
29 -2 2 -3 0 -3 -6z"/>
<path d="M5467 2621 c-3 -14 0 -21 9 -21 16 0 18 9 5 28 -6 10 -10 9 -14 -7z"/>
<path d="M1095 2610 c-10 -11 -20 -18 -23 -15 -3 2 -16 -5 -30 -15 -13 -11
-31 -20 -39 -20 -10 0 -13 -6 -9 -16 3 -8 2 -12 -4 -9 -6 3 -10 1 -10 -4 0 -6
6 -11 13 -11 21 0 40 17 33 29 -9 15 7 14 22 -1 9 -9 12 -9 12 0 0 7 6 12 14
12 8 0 18 5 22 12 5 7 3 8 -6 3 -9 -5 -11 -4 -6 3 4 7 14 12 22 12 8 0 14 5
14 12 0 6 3 8 6 5 4 -4 1 -13 -6 -22 -11 -13 -10 -14 4 -9 17 7 19 14 10 38
-8 21 -17 20 -39 -4z"/>
<path d="M5668 2593 c7 -3 16 -2 19 1 4 3 -2 6 -13 5 -11 0 -14 -3 -6 -6z"/>
<path d="M5482 2581 c-11 -7 -10 -10 3 -15 9 -3 24 -6 32 -6 13 0 13 3 3 15
-14 17 -20 18 -38 6z"/>
<path d="M4978 2549 c-21 -12 -24 -49 -6 -67 18 -18 56 -14 68 7 12 24 4 48
-21 61 -21 12 -20 12 -41 -1z"/>
<path d="M5392 2535 c0 -16 2 -22 5 -12 2 9 2 23 0 30 -3 6 -5 -1 -5 -18z"/>
<path d="M5470 2540 c-8 -5 -12 -12 -9 -15 4 -3 12 1 19 10 14 17 11 19 -10 5z"/>
<path d="M60 2525 c-1 -5 -2 -13 -1 -17 0 -5 -2 -7 -6 -7 -20 3 -57 -3 -45 -8
6 -2 12 -9 12 -14 0 -6 -3 -8 -7 -6 -5 3 -8 -8 -9 -25 -1 -25 2 -29 20 -24 11
3 28 -2 38 -11 17 -15 18 -15 18 8 0 19 -2 21 -10 9 -7 -12 -9 -10 -8 7 1 11
7 19 13 17 6 -3 19 2 29 9 18 13 18 14 -7 21 -16 4 -27 15 -30 29 -2 12 -5 18
-7 12z m18 -44 c6 -1 12 -6 12 -12 0 -5 -5 -7 -12 -3 -6 4 -17 0 -23 -10 -11
-15 -13 -14 -17 8 -4 18 -1 23 11 21 9 -2 22 -4 29 -4z m-48 -31 c0 -11 -4
-20 -9 -20 -5 0 -7 9 -4 20 3 11 7 20 9 20 2 0 4 -9 4 -20z"/>
<path d="M5516 2493 c-6 -14 -5 -15 5 -6 7 7 10 15 7 18 -3 3 -9 -2 -12 -12z"/>
<path d="M5400 2496 c0 -2 8 -10 18 -17 15 -13 16 -12 3 4 -13 16 -21 21 -21
13z"/>
<path d="M2430 2453 c0 -24 24 -32 36 -11 4 6 3 8 -4 4 -6 -3 -15 2 -21 11 -9
16 -10 16 -11 -4z"/>
<path d="M5458 2463 c7 -3 16 -2 19 1 4 3 -2 6 -13 5 -11 0 -14 -3 -6 -6z"/>
<path d="M5714 2456 c-9 -24 4 -48 23 -44 12 2 18 12 18 28 0 29 -32 41 -41
16z"/>
<path d="M2441 2410 c-1 -22 35 -77 58 -90 12 -6 21 -7 21 -2 0 6 -9 12 -20
15 -14 4 -18 10 -13 23 4 12 3 15 -5 10 -7 -4 -17 6 -26 26 -8 18 -15 26 -15
18z"/>
<path d="M4682 2382 c4 -28 1 -31 -29 -37 -38 -7 -88 -46 -108 -86 -20 -37
-19 -113 1 -156 50 -105 206 -126 283 -38 41 47 55 103 40 158 -6 23 -16 48
-21 55 -8 9 -6 16 8 27 18 13 18 15 2 31 -15 15 -17 15 -29 -4 -12 -19 -13
-19 -43 -1 -17 10 -39 19 -48 19 -12 0 -16 8 -15 27 2 22 -3 29 -22 31 -21 3
-23 1 -19 -26z m93 -86 c84 -55 81 -179 -4 -230 -87 -51 -204 13 -204 112 0
109 119 176 208 118z"/>
<path d="M4702 2254 c-1 -23 -8 -47 -16 -54 -19 -15 -9 -40 15 -40 23 0 35 25
21 43 -6 7 -12 30 -15 52 l-4 40 -1 -41z"/>
<path d="M2214 2379 c-4 -6 -19 -9 -36 -5 -28 5 -30 4 -24 -18 4 -15 0 -28 -9
-36 -22 -18 -18 -30 8 -30 12 0 28 -10 36 -22 l13 -22 15 27 c8 15 22 27 33
27 23 0 27 15 5 24 -9 3 -15 18 -15 36 0 30 -13 40 -26 19z"/>
<path d="M1670 2334 c-76 -33 -110 -86 -110 -170 0 -109 73 -184 180 -184 164
0 245 187 135 309 -52 58 -134 76 -205 45z m160 -44 c52 -37 57 -57 22 -94
-36 -38 -67 -98 -76 -148 -6 -34 -10 -38 -37 -38 -55 0 -139 59 -139 98 0 5
20 29 44 55 28 29 49 62 57 89 6 24 13 49 15 57 6 20 76 8 114 -19z m-150 0
c0 -20 -38 -85 -64 -109 l-26 -24 0 22 c0 13 7 38 16 57 22 45 74 83 74 54z
m199 -191 c-11 -28 -53 -69 -70 -69 -21 0 34 120 66 142 15 11 19 -39 4 -73z"/>
<path d="M360 2283 c-71 -37 -100 -125 -65 -194 50 -96 210 -91 252 8 50 122
-73 245 -187 186z m18 -43 c-24 -33 -33 -36 -44 -18 -8 13 30 48 52 48 11 0 9
-8 -8 -30z m100 21 c10 -6 8 -16 -10 -44 -19 -30 -28 -36 -52 -34 -41 3 -43
22 -8 57 31 31 47 36 70 21z m52 -62 c0 -6 -4 -7 -10 -4 -5 3 -10 11 -10 16 0
6 5 7 10 4 6 -3 10 -11 10 -16z m-94 -49 c24 0 33 -5 37 -22 12 -42 -49 -51
-119 -18 -45 22 -56 37 -48 67 5 19 7 19 51 -4 26 -13 61 -23 79 -23z m85 13
c10 -27 -5 -93 -20 -93 -9 0 -22 110 -15 122 8 13 24 -1 35 -29z m-94 -97 c26
0 30 -2 22 -13 -15 -17 -43 -17 -79 2 -38 19 -38 28 -2 18 15 -4 42 -8 59 -7z"/>
<path d="M3053 2279 c-9 -9 -7 -21 7 -49 l19 -37 -37 -17 c-20 -10 -38 -14
-39 -9 -2 4 -12 23 -23 40 -23 39 -55 36 -46 -3 4 -13 2 -24 -4 -24 -6 0 -6
-9 0 -26 6 -14 8 -30 5 -34 -3 -5 1 -12 8 -17 8 -4 19 -18 26 -31 7 -12 16
-20 22 -17 5 4 12 -1 15 -9 8 -20 33 -21 40 -2 3 8 -2 28 -10 45 -21 40 -20
46 9 59 38 17 52 15 58 -10 4 -13 13 -32 20 -43 12 -15 18 -17 29 -8 13 11 13
27 6 107 -3 22 -40 66 -56 66 -5 0 -12 7 -16 15 -6 18 -18 19 -33 4z"/>
<path d="M4266 2254 c-8 -22 -8 -24 6 -21 13 2 54 -70 45 -80 -3 -2 -20 -2
-37 2 -29 6 -31 10 -26 38 l6 32 -11 -28 c-9 -22 -15 -26 -32 -21 -12 3 -26
10 -31 15 -15 13 -26 11 -26 -6 0 -9 9 -15 23 -15 45 0 51 -13 32 -69 -9 -29
-14 -55 -11 -58 12 -12 91 20 116 47 21 22 32 27 55 23 19 -4 26 -2 21 6 -4 6
-16 11 -27 11 -14 0 -19 7 -19 27 0 32 -46 113 -64 113 -8 0 -17 -7 -20 -16z
m37 -123 c9 -9 -33 -42 -65 -54 -21 -7 -22 -1 -7 42 10 28 15 32 38 26 14 -3
30 -10 34 -14z"/>
<path d="M5113 2262 c22 -9 24 -22 5 -33 -10 -7 -10 -9 0 -9 7 0 10 -4 7 -10
-3 -5 -14 -10 -23 -10 -10 0 -13 3 -7 8 14 10 18 42 5 42 -5 0 -10 -9 -10 -20
0 -23 -28 -40 -66 -40 -37 0 -28 -6 21 -13 27 -4 35 -3 25 3 -20 13 -4 13 21
0 10 -6 19 -16 19 -23 0 -7 -4 -6 -10 3 -8 13 -9 -3 -1 -52 0 -5 7 -8 15 -8 9
0 17 15 21 40 6 34 10 40 31 40 16 0 28 -8 36 -25 6 -14 15 -25 20 -25 5 0 7
-4 4 -8 -3 -5 13 -28 35 -51 21 -24 39 -38 39 -32 0 6 5 11 11 11 5 0 8 -4 5
-8 -3 -5 4 -39 15 -76 11 -37 19 -72 17 -78 -2 -6 -19 -16 -38 -22 -38 -12
-50 -41 -31 -73 8 -14 9 -9 4 19 -5 36 -4 38 25 44 53 11 58 25 35 104 -12 39
-17 73 -12 76 8 4 13 -8 11 -27 -1 -7 67 -11 78 -4 16 10 -11 43 -32 37 -10
-2 -18 1 -18 7 0 7 6 9 13 5 10 -6 10 -4 0 7 -18 19 -16 34 2 19 17 -14 31 -8
21 8 -11 18 -41 6 -44 -16 -5 -36 -39 -26 -98 29 -59 56 -66 75 -31 82 12 3
-5 5 -38 4 l-60 -2 0 40 c0 32 -4 40 -20 42 -18 3 -18 2 -2 -5z m157 -177 c19
-19 32 -35 29 -35 -3 0 -20 16 -39 35 -19 19 -32 35 -29 35 3 0 20 -16 39 -35z
m144 -63 c3 -5 -1 -9 -9 -9 -8 0 -12 4 -9 9 3 4 7 8 9 8 2 0 6 -4 9 -8z"/>
<path d="M775 2250 c-27 -11 -61 -49 -70 -79 -6 -19 -4 -23 8 -18 9 3 21 -2
29 -11 11 -15 11 -15 -2 -5 -10 8 -21 9 -30 3 -12 -8 -12 -10 -1 -10 7 0 11
-6 8 -14 -3 -7 1 -23 9 -35 12 -17 19 -19 35 -11 10 6 19 8 19 4 0 -4 9 1 21
12 12 10 23 18 25 16 9 -7 64 10 64 19 0 6 -4 8 -8 5 -5 -3 -9 1 -9 8 0 8 9
11 24 8 19 -4 23 0 23 22 0 40 -18 66 -55 82 -38 16 -60 17 -90 4z m50 -10
c-14 -6 -15 -9 -5 -10 12 0 11 -3 -3 -11 -10 -6 -21 -8 -24 -5 -4 3 -1 6 5 6
6 0 9 7 6 15 -5 11 0 15 17 14 23 0 23 -1 4 -9z m-43 -12 c-9 -9 -9 -15 1 -27
7 -11 4 -10 -10 2 -19 17 -22 17 -26 3 -4 -13 -4 -12 -3 1 1 10 8 17 14 16 7
-2 12 2 12 7 0 6 5 10 12 10 9 0 9 -3 0 -12z m105 -10 c27 -26 30 -40 6 -32
-16 5 -15 3 1 -10 11 -9 16 -19 12 -23 -4 -4 -12 0 -17 10 -6 9 -15 14 -21 11
-7 -5 -8 -2 -2 7 22 36 3 64 -22 33 -14 -18 -14 -18 -4 4 13 27 18 27 47 0z
m-160 -40 c-3 -8 -6 -5 -6 6 -1 11 2 17 5 13 3 -3 4 -12 1 -19z m53 -7 c0 -5
-7 -12 -16 -15 -14 -5 -15 -4 -4 9 14 17 20 19 20 6z m40 3 c0 -8 -19 -13 -24
-6 -3 5 1 9 9 9 8 0 15 -2 15 -3z m-30 -49 c-13 -15 -30 -12 -30 7 0 5 7 8 15
4 8 -3 15 0 15 6 0 6 3 8 6 5 4 -4 1 -13 -6 -22z m63 5 c3 -11 1 -18 -4 -14
-5 3 -9 12 -9 20 0 20 7 17 13 -6z"/>
<path d="M5677 2253 c-4 -3 -7 -21 -7 -39 0 -23 -5 -34 -17 -37 -17 -4 -17 -5
0 -6 9 0 17 -8 17 -16 0 -9 6 -12 15 -9 9 4 15 0 15 -7 0 -11 2 -11 9 1 12 18
3 33 -15 26 -7 -3 -16 0 -20 7 -4 7 -4 9 1 5 4 -4 14 -3 22 3 8 7 13 8 13 1 0
-5 7 -12 15 -16 9 -3 15 0 15 10 0 8 -5 12 -10 9 -10 -6 -14 1 -24 48 -6 26
-16 34 -29 20z m23 -38 c0 -13 -4 -27 -10 -30 -6 -4 -10 8 -10 30 0 22 4 34
10 30 6 -3 10 -17 10 -30z"/>
<path d="M3521 2225 c-23 -14 -51 -25 -62 -25 -25 0 -52 -43 -44 -70 9 -29 53
-56 67 -42 7 7 17 8 28 2 10 -5 37 -11 61 -12 l44 -3 2 45 c2 53 -19 124 -38
128 -8 1 -34 -9 -58 -23z m63 -4 c3 -5 -1 -14 -9 -21 -21 -18 -19 -29 5 -23
28 7 26 -21 -2 -35 l-23 -11 23 -7 c12 -3 22 -13 22 -21 0 -12 -8 -14 -37 -8
-46 8 -49 11 -57 57 -6 35 -4 39 26 58 37 22 44 24 52 11z m-114 -89 c0 -17
-5 -23 -17 -20 -22 4 -29 34 -12 54 15 18 29 2 29 -34z"/>
<path d="M114 2229 c-4 -7 -20 -9 -40 -6 -32 5 -32 5 -27 -27 3 -20 1 -36 -6
-40 -19 -12 -12 -26 13 -26 13 0 30 -10 39 -22 l15 -23 11 27 c6 17 21 30 37
34 l27 7 -21 18 c-12 9 -22 29 -22 43 0 27 -14 35 -26 15z"/>
<path d="M5478 2173 c17 -2 47 -2 65 0 17 2 3 4 -33 4 -36 0 -50 -2 -32 -4z"/>
<path d="M5588 2173 c6 -2 18 -2 25 0 6 3 1 5 -13 5 -14 0 -19 -2 -12 -5z"/>
<path d="M2663 2144 c-3 -8 2 -23 11 -32 15 -15 17 -15 32 0 21 21 11 48 -16
48 -11 0 -23 -7 -27 -16z"/>
<path d="M5550 2123 c-19 -19 -54 -46 -77 -60 -37 -21 -41 -27 -32 -44 6 -11
8 -28 6 -37 -4 -16 -5 -16 -6 1 -1 18 -21 25 -21 7 0 -6 -15 -8 -35 -4 -20 3
-35 1 -35 -5 0 -17 20 -23 35 -11 9 8 15 8 15 2 0 -5 9 -8 20 -5 15 4 20 0 21
-13 1 -11 6 -3 13 17 6 21 20 46 30 58 11 12 14 21 8 21 -6 0 -13 -6 -15 -12
-4 -10 -6 -10 -6 0 -1 7 12 18 28 23 17 6 46 30 66 55 43 53 34 57 -15 7z"/>
<path d="M5671 2114 c0 -11 3 -14 6 -6 3 7 2 16 -1 19 -3 4 -6 -2 -5 -13z"/>
<path d="M5687 2101 c-4 -17 -3 -21 5 -13 5 5 8 16 6 23 -3 8 -7 3 -11 -10z"/>
<path d="M2535 2084 c-11 -8 -25 -12 -32 -9 -7 3 -19 7 -26 10 -10 4 -13 -2
-9 -25 3 -20 -2 -37 -13 -50 -18 -19 -17 -20 13 -20 22 0 35 -7 43 -22 l12
-22 13 26 c7 14 23 28 36 31 20 6 21 7 6 24 -9 10 -18 30 -20 45 -3 25 -4 26
-23 12z"/>
<path d="M893 2079 c1 -6 -4 -14 -12 -17 -8 -3 -11 0 -7 7 10 16 -26 1 -42
-18 -11 -13 -12 -13 -6 -1 7 12 5 13 -8 3 -8 -7 -19 -9 -23 -5 -5 4 -5 1 -1
-5 4 -7 18 -13 31 -13 15 0 26 -7 30 -20 4 -11 11 -17 17 -14 6 4 8 -1 4 -12
-3 -11 -1 -26 4 -34 8 -13 10 -13 15 1 6 17 -21 90 -33 86 -4 -1 -7 3 -7 8 0
6 9 9 19 7 11 -1 23 3 28 10 11 18 10 28 -2 28 -5 0 -9 -5 -7 -11z"/>
<path d="M930 2070 c0 -5 5 -10 10 -10 6 0 10 5 10 10 0 6 -4 10 -10 10 -5 0
-10 -4 -10 -10z"/>
<path d="M5373 1949 c-7 -7 -10 -24 -7 -38 6 -29 -24 -66 -54 -66 -8 0 -17 -6
-20 -13 -5 -15 43 -7 67 12 11 8 13 8 8 0 -4 -7 0 -15 9 -18 24 -9 27 -7 10
10 -23 23 -20 34 11 34 25 0 26 -1 8 -14 -18 -13 -18 -14 4 -21 18 -6 21 -9
10 -16 -11 -7 -10 -9 4 -9 9 0 17 7 17 15 0 8 5 15 11 15 6 0 9 -6 6 -13 -3
-8 4 -14 19 -15 35 -3 30 23 -6 38 -40 16 -33 23 8 9 31 -11 44 -41 23 -53 -5
-3 -11 -20 -14 -38 -3 -18 -8 -43 -12 -55 -6 -20 -4 -23 19 -23 20 0 24 4 19
17 -4 11 -8 12 -11 5 -2 -7 -8 -12 -12 -12 -5 0 -3 17 4 38 7 20 11 43 9 50
-3 6 0 12 6 12 6 0 11 11 11 26 0 19 -8 28 -35 40 -19 7 -44 14 -55 14 -12 0
-18 5 -15 10 4 6 11 8 16 5 5 -4 9 3 9 14 0 11 -10 25 -21 32 -20 10 -21 9
-17 -9 4 -13 0 -23 -9 -27 -13 -4 -14 1 -10 25 7 33 6 35 -10 19z"/>
<path d="M13 1934 c-3 -8 1 -22 9 -30 12 -12 17 -12 33 -1 23 17 14 47 -15 47
-11 0 -23 -7 -27 -16z"/>
<path d="M4946 1935 c-7 -19 20 -46 39 -39 8 4 15 17 15 30 0 19 -5 24 -24 24
-13 0 -26 -7 -30 -15z"/>
<path d="M4215 1891 c31 -27 118 -80 126 -75 6 3 7 -6 4 -23 -4 -19 -3 -22 3
-10 7 16 10 17 19 5 8 -9 9 -19 3 -28 -6 -8 -10 -10 -10 -5 0 6 -3 6 -8 0 -4
-6 -31 -28 -59 -49 -49 -34 -71 -64 -40 -53 6 2 11 10 9 16 -1 7 2 10 7 7 5
-4 8 -16 6 -27 -4 -18 -2 -19 12 -7 9 7 14 8 10 2 -4 -7 0 -15 9 -18 8 -3 12
-2 9 4 -3 5 10 6 32 3 34 -6 37 -5 25 9 -8 11 -9 17 -2 20 18 6 21 48 3 48
-10 0 -13 -5 -9 -17 4 -10 4 -14 0 -10 -4 4 -12 -1 -19 -10 -11 -14 -12 -14
-18 1 -4 10 -3 14 3 11 5 -3 14 4 21 16 10 19 9 21 -5 16 -23 -9 -20 0 5 14
12 6 19 7 15 1 -3 -5 4 -12 15 -15 13 -4 18 -10 14 -18 -5 -7 -3 -10 6 -7 8 3
13 10 12 16 -1 5 4 13 12 16 16 6 21 -9 5 -19 -5 -3 -7 -12 -4 -20 4 -10 -1
-12 -18 -9 -22 4 -22 4 -3 -6 11 -6 28 -24 37 -40 9 -17 22 -30 27 -30 13 0
57 59 66 88 4 15 12 21 21 18 9 -3 12 -1 9 4 -11 18 -24 10 -44 -27 -11 -21
-20 -34 -21 -29 0 5 -6 3 -14 -3 -12 -10 -18 -7 -32 15 -17 25 -17 27 1 40 10
7 21 11 25 9 4 -2 5 8 3 23 -3 22 -2 23 5 8 8 -19 9 -19 14 2 9 32 -14 45 -71
38 -46 -6 -50 -4 -74 27 -15 20 -49 43 -88 60 -35 15 -59 23 -54 18z m125 -67
c0 -2 -13 2 -30 11 -16 9 -30 18 -30 21 0 2 14 -2 30 -11 17 -9 30 -18 30 -21z
m157 -57 c3 -6 1 -7 -5 -3 -6 4 -24 -1 -39 -10 -20 -11 -23 -12 -10 -1 13 11
15 16 5 20 -7 2 -1 4 15 4 15 0 30 -4 34 -10z m-77 -1 c0 -2 -7 -7 -16 -10 -8
-3 -12 -2 -9 4 6 10 25 14 25 6z m-5 -26 c-3 -5 -12 -10 -18 -10 -7 0 -6 4 3
10 19 12 23 12 15 0z m-105 -54 c0 -8 -4 -18 -10 -21 -5 -3 -10 3 -10 14 0 12
5 21 10 21 6 0 10 -6 10 -14z m140 -31 c7 -9 8 -15 2 -15 -5 0 -12 7 -16 15
-3 8 -4 15 -2 15 2 0 9 -7 16 -15z m42 -27 c-7 -7 -12 -8 -12 -2 0 14 12 26
19 19 2 -3 -1 -11 -7 -17z m-22 -8 c0 -5 -2 -10 -4 -10 -3 0 -8 5 -11 10 -3 6
-1 10 4 10 6 0 11 -4 11 -10z"/>
<path d="M2980 1845 c-37 -13 -38 -15 -26 -57 9 -32 11 -32 55 -17 34 12 36
20 18 60 -11 25 -14 26 -47 14z"/>
<path d="M623 1843 c-7 -2 -13 -12 -13 -21 0 -34 -15 -44 -44 -31 -23 11 -29
10 -49 -9 -24 -22 -117 -62 -145 -62 -23 0 -42 -19 -35 -36 4 -11 11 -11 36 3
18 9 43 17 57 19 14 2 40 6 58 9 32 6 33 5 27 -17 -4 -13 -18 -44 -31 -71 -14
-26 -26 -66 -29 -90 -10 -104 -9 -102 -82 -102 -44 0 -68 4 -71 13 -6 18 -26
15 -74 -10 -40 -20 -57 -35 -58 -49 0 -3 40 -3 88 -1 64 3 105 0 147 -12 31
-10 63 -15 70 -13 6 3 28 30 49 61 20 30 41 58 46 61 15 9 78 -22 84 -42 3
-10 28 -40 56 -67 27 -27 50 -57 50 -67 0 -16 8 -19 48 -19 26 0 53 4 61 9 13
9 -3 21 -66 50 -13 6 -43 39 -67 73 -25 35 -52 71 -61 81 -8 10 -31 34 -49 55
-31 34 -33 39 -20 57 15 20 15 20 32 -1 9 -11 40 -36 67 -55 28 -18 60 -42 72
-53 18 -16 25 -17 38 -6 21 17 19 28 -7 35 -62 19 -103 60 -161 164 l-18 33
25 27 c47 49 25 107 -31 84z"/>
<path d="M5305 1810 c-4 -6 -7 -25 -7 -43 0 -17 -5 -38 -11 -44 -5 -7 -6 -13
-1 -14 5 0 0 -5 -11 -10 l-20 -9 20 3 c11 1 21 8 21 15 3 26 5 26 21 7 l16
-20 -8 20 c-5 11 -10 37 -13 57 -4 35 -3 37 30 41 l33 4 -32 1 c-17 1 -35 -3
-38 -8z"/>
<path d="M2810 1791 c-19 -6 -24 -13 -21 -32 8 -56 6 -62 -24 -72 -40 -13 -39
-11 -25 -52 11 -33 15 -36 39 -30 48 13 55 11 65 -24 9 -31 12 -33 44 -27 45
7 47 10 35 48 -9 34 -15 35 -72 27 -19 -3 -26 2 -37 34 -13 37 -12 38 12 47
14 6 29 10 34 10 17 0 20 18 9 49 -11 32 -17 34 -59 22z"/>
<path d="M2655 1738 c-16 -6 -31 -12 -33 -13 -2 -2 19 -67 24 -73 1 -2 19 1
39 8 26 8 35 16 31 27 -4 8 -9 26 -12 39 -7 27 -7 27 -49 12z"/>
<path d="M2918 1738 c-32 -11 -32 -13 -17 -57 8 -24 16 -31 28 -26 9 4 28 9
42 12 24 4 28 1 34 -26 8 -39 16 -43 54 -30 34 12 37 24 19 64 -9 20 -16 24
-32 18 -45 -14 -60 -9 -69 25 -11 34 -16 36 -59 20z"/>
<path d="M2566 1721 c-6 -10 141 -449 155 -465 6 -6 13 -6 20 1 8 8 -9 73 -66
242 -72 217 -90 253 -109 222z"/>
<path d="M4200 1651 c-8 -6 -17 -8 -21 -5 -11 6 -39 -37 -39 -58 0 -10 -5 -17
-12 -15 -6 1 -22 -13 -34 -32 -23 -32 -23 -35 -6 -48 16 -14 16 -14 0 -9 -10
3 -24 8 -32 12 -16 6 -72 -39 -87 -70 -9 -19 -9 -20 4 -3 12 15 16 15 20 3 5
-12 -12 -27 -35 -30 -3 -1 -10 -4 -14 -8 -4 -5 -16 -8 -26 -8 -13 0 -18 -7
-17 -27 l1 -28 8 25 c8 25 8 25 9 2 1 -14 5 -20 12 -17 6 4 8 14 5 22 -3 8 -2
12 2 9 5 -3 31 14 58 38 27 24 78 58 113 77 35 19 71 44 80 55 l16 22 50 -25
c63 -32 61 -29 41 -52 -12 -13 -14 -21 -6 -26 8 -5 8 -11 -1 -21 -6 -7 -15
-12 -18 -9 -4 2 -8 -2 -8 -10 0 -13 36 8 101 59 23 18 14 46 -14 46 -12 0 -18
5 -15 10 4 6 12 7 18 4 7 -4 -3 9 -22 29 -18 19 -39 33 -46 31 -6 -3 -18 2
-25 11 -7 8 -9 15 -5 15 5 0 0 9 -10 20 -20 23 -24 23 -45 11z m27 -24 c2 -3
0 -8 -6 -12 -6 -3 -11 -2 -11 4 0 6 -6 8 -14 5 -8 -3 -17 -1 -20 4 -5 9 41 8
51 -1z m-49 -32 c-3 -3 -9 2 -12 12 -6 14 -5 15 5 6 7 -7 10 -15 7 -18z m59 2
c0 -8 -6 -14 -14 -14 -9 0 -10 4 -2 14 6 7 12 13 14 13 1 0 2 -6 2 -13z m-73
-32 c-6 -16 -24 -21 -24 -7 0 11 11 22 21 22 5 0 6 -7 3 -15z m26 2 c0 -7 -7
-22 -15 -33 -13 -17 -13 -16 -3 14 13 34 18 40 18 19z m116 -20 c16 6 16 7 -1
13 -11 4 -14 9 -8 13 6 4 19 -3 29 -15 11 -12 13 -18 7 -14 -8 4 -13 1 -13 -9
0 -8 7 -18 15 -21 12 -5 10 -10 -11 -26 -28 -22 -25 -39 3 -17 17 12 17 12 1
-5 -9 -10 -21 -15 -28 -11 -8 5 -6 12 6 26 16 18 16 20 -9 43 -14 13 -28 22
-31 19 -2 -3 -2 5 1 18 l6 23 8 -22 c6 -15 13 -20 25 -15z m-181 6 c-2 -10 -4
-19 -4 -21 -1 -2 -6 0 -11 3 -8 5 -7 11 1 21 15 18 18 18 14 -3z m22 -38 c-4
-8 -12 -15 -19 -14 -10 0 -10 2 0 6 6 2 12 12 12 21 0 8 3 13 6 9 4 -3 4 -13
1 -22z m-44 -5 c3 -11 1 -18 -4 -14 -5 3 -9 12 -9 20 0 20 7 17 13 -6z m-33
-31 c12 -8 10 -9 -7 -4 -16 4 -23 2 -23 -8 0 -8 -10 -22 -22 -33 -22 -19 -22
-19 -8 0 14 18 13 19 -5 13 -15 -5 -13 -1 8 18 31 28 36 29 57 14z"/>
<path d="M4385 1650 c3 -5 8 -10 11 -10 2 0 4 5 4 10 0 6 -5 10 -11 10 -5 0
-7 -4 -4 -10z"/>
<path d="M1610 1620 c0 -5 7 -10 15 -10 8 0 15 5 15 10 0 6 -7 10 -15 10 -8 0
-15 -4 -15 -10z"/>
<path d="M4265 1610 c3 -5 8 -10 11 -10 2 0 4 5 4 10 0 6 -5 10 -11 10 -5 0
-7 -4 -4 -10z"/>
<path d="M5610 1595 c0 -31 26 -43 47 -22 13 13 14 19 3 31 -21 26 -50 20 -50
-9z"/>
<path d="M2703 1578 c-30 -10 -31 -12 -21 -42 6 -17 14 -34 17 -39 11 -11 71
13 71 29 0 17 -22 64 -29 63 -3 -1 -20 -6 -38 -11z"/>
<path d="M1585 1560 c3 -5 8 -10 11 -10 2 0 4 5 4 10 0 6 -5 10 -11 10 -5 0
-7 -4 -4 -10z"/>
<path d="M931 1524 c-38 -27 -22 -84 25 -84 29 0 46 23 42 56 -4 34 -37 48
-67 28z"/>
<path d="M1584 1532 c3 -5 0 -13 -6 -15 -11 -4 -11 -6 0 -6 26 -2 -12 -41 -40
-41 -16 0 -28 -4 -28 -9 0 -6 -15 -7 -32 -5 -53 9 -66 -10 -72 -101 l-5 -80
12 85 c11 80 13 83 25 56 6 -15 8 -24 2 -21 -6 4 -9 -3 -6 -17 2 -13 -1 -29
-6 -35 -6 -7 -8 -25 -5 -39 3 -17 0 -27 -10 -31 -24 -9 27 -33 57 -27 17 4 21
3 12 -4 -11 -7 -8 -11 10 -15 12 -4 26 -7 31 -7 14 0 7 49 -8 58 -19 10 -11
39 10 39 8 0 15 -4 15 -9 0 -4 -7 -8 -16 -8 -8 0 -12 -5 -9 -10 4 -6 10 -8 15
-5 5 3 12 0 16 -6 4 -7 3 -9 -3 -6 -6 4 -8 -4 -5 -21 5 -22 7 -24 10 -7 2 11
8 25 13 31 11 13 61 25 54 13 -3 -4 -1 -10 5 -14 5 -3 10 -22 10 -41 0 -26 4
-34 18 -34 9 0 13 4 7 8 -5 4 -11 16 -13 27 -3 18 -2 18 13 -2 10 -15 27 -23
46 -23 27 0 34 8 30 38 -1 6 6 12 16 12 15 0 16 -2 3 -11 -12 -8 -12 -10 -1
-7 20 6 24 47 6 54 -8 4 -15 14 -14 23 0 10 2 11 6 4 2 -7 9 -13 14 -13 6 0 7
5 4 10 -3 6 -1 10 5 10 6 0 10 -6 9 -12 -1 -7 0 -31 1 -53 2 -28 5 -16 11 40
5 44 7 85 5 90 -3 6 -5 -3 -5 -20 -1 -25 -5 -30 -28 -32 -14 0 -22 2 -17 5 5
4 14 16 20 27 9 16 8 23 -5 33 -14 11 -13 12 9 8 15 -4 10 2 -15 13 -24 12
-51 18 -70 14 -24 -4 -27 -2 -15 7 12 9 6 10 -28 6 -29 -4 -41 -3 -37 4 3 5
-1 10 -9 10 -27 0 -18 -19 12 -25 15 -4 44 -10 65 -15 21 -4 48 -6 60 -3 12 3
19 2 15 -2 -4 -5 -3 -14 3 -22 9 -10 6 -13 -17 -14 -26 0 -27 -1 -9 -10 21 -9
14 -9 -115 7 -30 4 -72 13 -93 20 -21 7 -41 13 -45 13 -20 -3 -32 3 -32 16 0
8 7 15 15 15 8 0 13 -6 11 -12 -1 -7 -1 -10 1 -5 3 4 12 7 22 7 9 0 22 5 28
11 6 6 19 9 29 7 34 -7 71 61 42 78 -6 4 -8 3 -4 -4z m-74 -136 c0 -2 -7 -7
-16 -10 -8 -3 -12 -2 -9 4 6 10 25 14 25 6z m75 -16 c13 0 31 -7 39 -16 9 -8
16 -11 16 -5 0 6 5 11 10 11 6 0 6 -7 -2 -19 -11 -18 -12 -18 -31 0 -13 12
-28 17 -43 13 -12 -3 -25 -1 -29 5 -3 6 -11 8 -17 5 -7 -5 -8 -2 -4 5 5 7 15
10 23 7 8 -3 25 -6 38 -6z m115 -36 c0 -8 -5 -12 -11 -9 -5 4 -15 -7 -22 -24
-6 -17 -15 -31 -20 -31 -4 0 -5 -6 -1 -12 5 -10 4 -10 -6 -1 -10 9 -7 19 18
51 17 22 28 43 24 47 -4 5 -1 5 6 1 6 -4 12 -14 12 -22z m-165 6 c0 -1 10 -4
23 -5 12 -1 22 2 22 6 0 5 5 9 11 9 8 0 8 -5 -1 -15 -7 -8 -16 -12 -21 -9 -5
3 -9 0 -9 -7 0 -8 -4 -8 -12 -2 -16 13 -49 13 -65 1 -7 -6 -21 -7 -30 -4 -15
5 -15 4 1 -9 11 -8 14 -15 7 -15 -7 0 -9 -5 -5 -12 4 -7 3 -8 -5 -4 -6 4 -9
12 -6 17 4 5 1 9 -4 9 -14 0 -14 10 -1 30 9 13 11 13 20 0 8 -13 10 -13 10 1
0 13 8 16 33 14 17 -2 32 -4 32 -5z m186 -13 c-10 -9 -11 -8 -5 6 3 10 9 15
12 12 3 -3 0 -11 -7 -18z m-121 -17 c-8 -5 -10 -10 -5 -10 6 0 -1 -6 -15 -13
-14 -8 -27 -12 -29 -10 -6 5 41 43 53 43 6 0 4 -5 -4 -10z m126 -25 c-3 -8 4
-15 17 -18 18 -3 17 -5 -6 -6 -16 0 -26 -5 -22 -11 3 -5 1 -10 -5 -10 -8 0 -9
7 -5 18 5 9 8 25 9 34 0 9 4 14 9 11 5 -3 6 -11 3 -18z m-41 -14 c3 -5 2 -12
-3 -15 -5 -3 -9 1 -9 9 0 17 3 19 12 6z m-230 -21 c8 -13 -5 -13 -25 0 -13 8
-13 10 2 10 9 0 20 -4 23 -10z m60 0 c3 -6 -1 -7 -9 -4 -18 7 -21 14 -7 14 6
0 13 -4 16 -10z m175 -21 c0 -5 5 -7 12 -3 7 4 8 3 4 -5 -6 -9 -11 -9 -22 0
-17 14 -18 19 -4 19 6 0 10 -5 10 -11z"/>
<path d="M2864 1435 c-4 -9 -2 -21 4 -27 16 -16 47 -5 47 17 0 26 -42 34 -51
10z"/>
<path d="M1174 1425 c-4 -9 0 -23 9 -32 21 -21 49 -9 45 19 -4 28 -45 38 -54
13z"/>
<path d="M4218 1395 l-28 -24 28 -19 c30 -21 60 -19 42 2 -5 7 -11 25 -12 40
-1 14 -3 26 -3 26 0 0 -12 -11 -27 -25z m15 -15 c-3 -11 0 -20 6 -20 6 0 11
-5 11 -12 0 -6 -9 -3 -20 7 -15 14 -17 21 -9 32 16 18 18 16 12 -7z"/>
<path d="M4268 1323 c7 -3 16 -2 19 1 4 3 -2 6 -13 5 -11 0 -14 -3 -6 -6z"/>
<path d="M2969 1293 l-24 -28 26 23 c14 12 33 22 42 22 20 0 35 -28 21 -39
-12 -8 -14 -41 -3 -41 16 0 23 71 8 81 -24 15 -45 10 -70 -18z"/>
<path d="M3903 1313 c-15 -5 -17 -23 -4 -23 5 0 11 7 15 15 3 8 4 15 3 14 -1
0 -8 -3 -14 -6z"/>
<path d="M2983 1276 c-18 -20 -19 -25 -7 -30 8 -3 12 -2 9 3 -3 5 -1 12 4 15
5 4 13 1 17 -5 4 -7 3 -9 -4 -5 -7 4 -9 -1 -7 -16 3 -14 -3 -29 -17 -42 l-21
-20 6 27 c4 14 3 29 -3 32 -5 3 -10 1 -10 -4 0 -6 -15 -11 -33 -11 -36 0 -55
-15 -81 -67 -21 -42 -20 -56 3 -50 17 4 17 2 6 -37 -7 -22 -22 -57 -33 -76
-31 -54 -56 -150 -42 -164 8 -8 9 -6 4 9 -7 18 -6 18 16 -3 13 -12 20 -25 17
-29 -4 -3 -7 -1 -7 5 0 7 -4 12 -8 12 -5 0 -9 -7 -9 -15 0 -8 4 -12 9 -9 4 3
8 -2 8 -11 0 -19 -25 -47 -34 -38 -10 10 -7 25 3 18 5 -3 13 -1 16 5 4 6 1 9
-7 8 -8 -2 -12 4 -10 15 2 9 -2 17 -8 17 -15 0 -12 -43 5 -76 8 -16 15 -24 15
-18 0 7 7 15 16 18 8 3 12 2 9 -4 -3 -6 0 -10 7 -10 8 0 9 -3 3 -8 -14 -9 -35
-93 -22 -85 5 3 8 0 5 -8 -3 -8 -11 -14 -19 -14 -19 0 -18 -39 1 -43 11 -2 18
11 26 42 6 28 6 43 0 39 -5 -4 -7 1 -3 11 4 10 7 25 7 34 0 14 2 15 9 2 6 -8
7 -18 5 -22 -3 -4 -3 -8 0 -8 2 0 14 16 27 36 22 35 36 100 21 90 -5 -3 -9 1
-9 9 0 8 4 12 9 9 4 -3 28 15 53 39 42 42 45 48 45 99 0 38 7 69 25 104 14 27
25 57 25 67 0 9 5 17 11 17 5 0 7 -5 3 -12 -4 -7 -3 -8 4 -4 8 5 12 -2 13 -21
l1 -28 8 25 c5 18 7 10 8 -33 0 -31 -3 -55 -7 -52 -5 2 -17 -5 -27 -16 -17
-19 -17 -20 2 -13 37 14 44 26 44 83 0 49 -3 58 -22 66 -14 6 -22 17 -20 28 2
12 -4 17 -22 17 -14 0 -28 5 -31 10 -4 7 3 8 21 4 16 -4 35 -7 42 -7 7 0 11
-6 8 -12 -2 -7 0 -18 5 -26 7 -10 9 -6 7 16 -2 25 -8 31 -33 35 -31 6 -31 5
-21 67 1 7 5 16 9 19 11 12 8 24 -6 24 -7 0 -23 -11 -34 -24z m-93 -86 c0 -11
-4 -20 -9 -20 -5 0 -7 9 -4 20 3 11 7 20 9 20 2 0 4 -9 4 -20z m51 -5 c3 2 5
-5 6 -15 1 -16 -1 -18 -17 -8 -10 7 -21 21 -24 31 -4 17 -3 18 13 3 10 -9 20
-14 22 -11z m-71 -40 c0 -2 -6 -8 -13 -14 -10 -8 -14 -7 -14 2 0 8 6 14 14 14
7 0 13 -1 13 -2z m130 -20 c11 -13 10 -14 -4 -9 -11 4 -16 1 -16 -10 0 -9 -4
-16 -10 -16 -13 0 -13 6 2 30 15 24 13 23 28 5z m-38 -97 c-14 -15 -28 -26
-30 -23 -3 3 3 15 14 27 19 21 19 21 -1 14 -20 -7 -20 -7 0 12 14 12 23 15 31
8 7 -7 3 -18 -14 -38z m-85 36 c-3 -3 -12 -4 -19 -1 -8 3 -5 6 6 6 11 1 17 -2
13 -5z m-7 -29 c11 -13 10 -14 -4 -9 -9 3 -16 10 -16 15 0 13 6 11 20 -6z
m-25 -29 c-18 -13 -18 -15 -2 -39 14 -22 14 -25 2 -21 -8 4 -15 14 -15 23 0
14 -2 14 -10 1 -5 -8 -10 -10 -10 -5 0 16 30 55 42 55 7 0 3 -6 -7 -14z m115
-11 c-7 -8 -17 -15 -23 -15 -6 0 -2 7 9 15 25 19 30 19 14 0z m-76 -4 c-9 -9
-34 -9 -34 -1 0 5 9 8 20 7 10 -1 17 -3 14 -6z m-13 -64 c23 4 29 2 29 -12 0
-14 -3 -15 -15 -5 -9 7 -18 10 -22 6 -3 -3 -1 -6 5 -6 7 0 12 -5 12 -12 0 -9
-3 -9 -12 0 -8 8 -17 8 -32 0 -17 -8 -19 -8 -9 2 6 7 10 18 9 24 -2 6 -1 8 1
4 3 -4 18 -5 34 -1z m-57 -22 c-4 -8 -11 -15 -16 -15 -6 0 -5 6 2 15 7 8 14
15 16 15 2 0 1 -7 -2 -15z m146 -5 c0 -5 -8 -10 -17 -10 -15 0 -16 2 -3 10 19
12 20 12 20 0z m-67 -25 c-3 -9 -8 -14 -10 -11 -3 3 -2 9 2 15 9 16 15 13 8
-4z m-89 -7 c-3 -4 -9 -8 -15 -8 -5 0 -9 4 -9 8 0 5 7 9 15 9 8 0 12 -4 9 -9z
m77 -30 c3 -1 13 3 23 11 9 8 19 11 22 8 3 -3 -4 -10 -15 -17 -12 -6 -21 -8
-21 -4 0 3 -7 1 -15 -6 -12 -10 -15 -10 -15 0 0 8 -9 11 -27 7 -25 -5 -26 -4
-9 9 17 12 25 11 57 -8z m-34 -29 c-3 -12 1 -32 10 -45 14 -22 14 -24 -1 -18
-9 3 -13 11 -10 16 4 6 -3 8 -17 4 -13 -3 -18 -3 -10 0 10 5 10 8 1 14 -9 6
-9 13 -1 29 15 27 35 27 28 0z m9 -81 c3 -4 -1 -5 -10 -4 -8 1 -18 5 -22 8 -3
4 1 5 10 4 8 -1 18 -5 22 -8z m-66 -149 c0 -5 -4 -9 -10 -9 -5 0 -10 7 -10 16
0 8 5 12 10 9 6 -3 10 -10 10 -16z"/>
<path d="M47 1233 c-3 -4 -8 -22 -11 -40 -4 -17 -14 -34 -22 -37 -16 -6 -20
-96 -4 -96 13 0 13 -37 -1 -46 -9 -5 -7 -186 3 -294 0 -8 -2 -27 -7 -42 -6
-24 -4 -28 13 -28 19 0 21 6 21 78 0 75 28 182 44 166 14 -14 7 -220 -8 -264
-19 -53 -19 -50 9 -50 21 0 24 5 30 68 15 140 25 199 40 252 13 45 14 64 5
106 -10 43 -9 55 5 83 9 17 21 29 26 26 14 -9 12 -49 -2 -63 -9 -9 -9 -12 1
-12 8 0 11 -6 7 -16 -4 -10 -1 -14 6 -12 15 5 28 120 18 157 -7 26 -13 28 -74
20 -25 -3 -31 0 -36 21 -4 18 -14 26 -32 28 -14 2 -28 0 -31 -5z"/>
<path d="M2976 1227 c3 -10 9 -15 12 -12 3 3 0 11 -7 18 -10 9 -11 8 -5 -6z"/>
<path d="M1748 1223 c7 -3 16 -2 19 1 4 3 -2 6 -13 5 -11 0 -14 -3 -6 -6z"/>
<path d="M5136 1202 c-3 -5 -16 -7 -30 -5 -13 3 -32 0 -43 -7 -17 -11 -17 -11
0 -6 11 4 16 2 11 -5 -3 -6 -15 -9 -25 -6 -41 11 -96 -103 -83 -176 4 -23 9
-36 12 -28 4 11 6 11 14 0 6 -10 7 -6 4 11 -12 65 -16 114 -7 101 7 -11 10
-10 15 7 8 25 46 66 77 82 30 17 87 21 95 8 4 -6 10 -5 15 3 7 11 9 9 9 -6 0
-17 2 -17 10 -5 8 13 10 13 10 -1 0 -9 7 -19 15 -23 8 -3 24 -20 35 -38 11
-18 20 -28 20 -23 0 6 -7 21 -16 33 -9 13 -14 26 -11 29 14 13 40 -53 43 -108
1 -34 5 -63 9 -67 3 -3 4 24 2 61 -5 94 -55 157 -128 160 -19 1 -37 6 -40 11
-4 4 -9 4 -13 -2z m-128 -87 c-6 -14 -13 -23 -15 -21 -5 5 15 46 22 46 3 0 -1
-11 -7 -25z m-31 -102 c-3 -10 -5 -2 -5 17 0 19 2 27 5 18 2 -10 2 -26 0 -35z"/>
<path d="M4059 1141 c-12 -34 -3 -50 27 -51 7 0 15 -8 18 -17 10 -24 -19 -43
-66 -43 -32 0 -39 -4 -44 -25 -15 -62 40 -90 161 -81 71 6 92 3 184 -24 57
-17 127 -30 156 -30 46 0 57 4 82 30 15 17 34 30 40 30 7 0 13 6 13 13 0 6 3
22 6 34 5 17 1 25 -12 30 -11 4 -33 21 -49 39 -38 40 -97 57 -148 43 -48 -13
-99 2 -121 36 -28 42 -67 55 -156 53 l-80 -3 -11 -34z m181 -6 c16 -8 35 -25
41 -37 10 -18 8 -24 -11 -40 -30 -24 -60 -23 -101 5 -40 27 -49 55 -23 74 24
17 58 16 94 -2z m130 -110 c0 -59 75 -110 148 -102 42 5 45 4 27 -9 -32 -24
-105 -16 -216 22 -94 32 -111 35 -179 30 -62 -5 -81 -3 -110 13 -47 25 -36 37
28 33 31 -3 58 1 67 8 10 8 19 8 34 1 37 -20 101 -13 133 14 23 20 33 23 49
15 10 -6 19 -17 19 -25z m150 20 c17 -9 33 -27 36 -42 14 -53 -57 -68 -116
-24 -70 51 -1 108 80 66z"/>
<path d="M4200 1123 c8 -3 29 -12 45 -20 l30 -14 -24 21 c-13 11 -33 20 -45
19 -14 0 -16 -2 -6 -6z"/>
<path d="M4470 1047 c0 -3 19 -14 42 -26 38 -18 40 -19 22 -2 -18 18 -64 38
-64 28z"/>
<path d="M2190 1136 c0 -16 -7 -27 -22 -32 -19 -6 -19 -7 -4 -16 9 -5 25 -6
36 -3 18 6 24 -2 22 -26 -1 -3 12 -3 28 -1 25 4 28 7 19 23 -6 13 -6 25 1 39
8 16 8 20 -3 20 -10 0 -13 -10 -11 -35 2 -26 -2 -35 -13 -35 -10 0 -12 6 -8
20 4 12 0 29 -10 42 -15 21 -16 21 -13 3 2 -11 7 -23 13 -27 5 -4 1 -6 -11 -6
-16 2 -19 7 -16 30 2 15 2 28 -2 28 -3 0 -6 -11 -6 -24z"/>
<path d="M2576 1117 c-12 -9 -17 -23 -14 -42 3 -27 7 -30 37 -30 44 0 61 35
31 65 -23 23 -30 24 -54 7z"/>
<path d="M5100 1090 c8 -5 20 -10 25 -10 6 0 3 5 -5 10 -8 5 -19 10 -25 10 -5
0 -3 -5 5 -10z"/>
<path d="M3463 1063 c-7 -3 -13 -16 -13 -29 0 -22 4 -25 27 -22 16 2 29 10 31
20 4 18 -26 38 -45 31z"/>
<path d="M5287 1063 c-4 -3 -7 -11 -7 -17 0 -6 5 -5 12 2 6 6 9 14 7 17 -3 3
-9 2 -12 -2z"/>
<path d="M5240 1055 c0 -5 5 -17 10 -25 5 -8 10 -10 10 -5 0 6 -5 17 -10 25
-5 8 -10 11 -10 5z"/>
<path d="M5045 1020 c10 -11 20 -20 23 -20 3 0 -3 9 -13 20 -10 11 -20 20 -23
20 -3 0 3 -9 13 -20z"/>
<path d="M2422 1021 c-21 -13 -10 -46 16 -49 27 -4 40 22 22 43 -14 17 -20 18
-38 6z"/>
<path d="M5211 1013 c7 -12 15 -20 18 -17 3 2 -3 12 -13 22 -17 16 -18 16 -5
-5z"/>
<path d="M5282 968 c-10 -30 -10 -31 3 -14 13 17 21 46 12 46 -1 0 -8 -15 -15
-32z"/>
<path d="M5171 987 c2 -1 13 -9 24 -17 19 -14 19 -14 6 3 -7 9 -18 17 -24 17
-6 0 -8 -1 -6 -3z"/>
<path d="M3260 960 c-30 -30 -10 -70 37 -70 43 0 52 59 12 80 -24 13 -26 13
-49 -10z"/>
<path d="M5296 943 c-6 -14 -5 -15 5 -6 7 7 10 15 7 18 -3 3 -9 -2 -12 -12z"/>
<path d="M4980 944 c0 -27 80 -94 111 -94 8 1 0 7 -17 14 -18 8 -35 19 -38 25
-8 13 5 15 20 3 5 -4 -4 6 -19 22 -25 26 -57 43 -57 30z m38 -35 c-3 -8 -7 -3
-11 10 -4 17 -3 21 5 13 5 -5 8 -16 6 -23z"/>
<path d="M5150 940 c8 -5 20 -10 25 -10 6 0 3 5 -5 10 -8 5 -19 10 -25 10 -5
0 -3 -5 5 -10z"/>
<path d="M5249 914 c-20 -25 -65 -44 -106 -45 -35 -2 -35 -2 12 -9 56 -8 87 3
120 41 l20 24 -26 -22 c-34 -31 -48 -29 -19 2 13 14 21 25 18 25 -3 0 -11 -7
-19 -16z m-29 -44 c-8 -5 -19 -10 -25 -10 -5 0 -3 5 5 10 8 5 20 10 25 10 6 0
3 -5 -5 -10z"/>
<path d="M5143 893 c9 -2 23 -2 30 0 6 3 -1 5 -18 5 -16 0 -22 -2 -12 -5z"/>
<path d="M4806 854 c-9 -22 17 -49 39 -40 10 3 15 15 13 28 -4 29 -42 37 -52
12z"/>
<path d="M2227 843 c-4 -3 -7 -17 -7 -30 0 -14 -6 -23 -15 -23 -11 0 -15 -11
-15 -40 0 -22 -4 -40 -10 -40 -5 0 -10 -9 -10 -19 0 -11 5 -23 10 -26 6 -3 10
-26 10 -51 0 -31 4 -44 14 -44 9 0 16 -12 18 -27 2 -23 8 -29 36 -31 l32 -3 0
75 0 76 70 0 70 0 0 -76 0 -75 33 3 c26 2 33 8 35 29 2 17 11 29 23 32 15 4
19 14 19 50 0 27 5 47 13 50 10 3 10 9 0 26 -7 11 -13 35 -13 52 0 22 -5 32
-19 36 -12 3 -21 15 -23 32 -2 21 -9 27 -35 29 l-33 3 0 -70 0 -71 -70 0 -70
0 0 70 0 70 -28 0 c-16 0 -32 -3 -35 -7z"/>
<path d="M5128 843 c12 -2 30 -2 40 0 9 3 -1 5 -23 4 -22 0 -30 -2 -17 -4z"/>
<path d="M1393 803 c-7 -2 -13 -16 -13 -29 0 -19 5 -24 24 -24 28 0 37 17 24
43 -9 18 -14 19 -35 10z"/>
<path d="M3197 795 c-178 -46 -185 -308 -10 -366 81 -26 174 6 224 79 19 29
24 48 24 102 0 56 -4 73 -28 108 -45 69 -127 99 -210 77z m47 -60 c-18 -43
-18 -79 0 -139 13 -44 13 -47 -7 -61 -32 -22 -43 -19 -62 21 -25 52 -29 98
-15 150 13 47 32 62 77 63 21 1 21 0 7 -34z m93 5 c17 -10 37 -28 43 -40 11
-21 11 -21 -19 -6 -16 9 -36 16 -43 16 -23 0 -39 16 -32 33 8 21 12 21 51 -3z
m-198 -197 c15 -29 0 -30 -25 -2 -21 23 -26 98 -10 134 8 16 11 5 16 -45 4
-36 12 -75 19 -87z m204 123 c46 -19 71 -50 63 -79 l-6 -24 -56 15 c-42 12
-58 22 -65 40 -23 60 -2 76 64 48z m-3 -135 c0 -5 -16 -23 -35 -40 -28 -25
-45 -31 -80 -31 -57 0 -65 14 -16 28 21 7 46 21 56 32 18 20 75 28 75 11z m40
-9 c0 -4 -9 -13 -20 -20 -19 -12 -20 -11 -8 8 13 20 28 27 28 12z"/>
<path d="M4931 738 c-6 -15 -5 -30 4 -43 28 -44 94 -7 74 43 -6 16 -16 22 -39
22 -23 0 -33 -6 -39 -22z"/>
<path d="M1577 733 c-22 -22 3 -93 33 -93 7 0 5 -8 -4 -22 -13 -18 -24 -22
-54 -19 -20 1 -41 7 -46 12 -16 14 -26 11 -26 -9 0 -12 14 -25 40 -37 22 -10
40 -25 40 -33 0 -9 -6 -12 -17 -7 -37 15 -94 17 -123 5 -68 -28 -97 -129 -53
-188 97 -132 287 -15 217 134 -9 19 -14 37 -12 40 3 2 20 -29 37 -70 l33 -74
-21 -43 c-26 -52 -26 -52 -1 -44 54 17 78 14 84 -9 9 -38 45 -75 84 -86 81
-24 162 37 162 122 0 77 -53 128 -133 128 -38 0 -47 4 -53 22 -5 17 0 27 22
45 16 13 35 28 42 34 21 17 13 57 -18 93 -32 36 -110 73 -129 61 -6 -3 -11 -1
-11 4 0 6 6 11 13 11 7 0 4 7 -7 15 -20 15 -87 21 -99 8z m133 -133 c12 -8 10
-10 -11 -10 -35 0 -64 -23 -56 -45 6 -15 3 -16 -20 -10 -39 9 -39 10 -1 44 34
31 62 38 88 21z m-35 -131 c1 -19 -2 -47 -6 -64 -6 -29 -7 -28 -38 35 -41 86
-41 92 7 76 33 -12 37 -17 37 -47z"/>
<path d="M5746 731 c-4 -5 -13 -8 -20 -5 -24 9 -26 -43 -3 -59 18 -12 23 -11
38 4 16 16 17 21 5 44 -8 15 -17 22 -20 16z"/>
<path d="M347 723 c-4 -3 -7 -13 -6 -22 0 -12 3 -11 9 4 7 16 9 13 8 -15 -1
-47 -8 -71 -18 -65 -5 3 -17 -6 -28 -20 -11 -13 -22 -22 -24 -19 -3 2 -11 -3
-18 -12 -11 -12 -11 -20 -2 -34 9 -14 8 -20 -1 -23 -7 -3 -4 -6 6 -6 18 -1 23
14 7 24 -19 12 -10 31 20 42 18 7 30 7 30 2 0 -6 4 -8 9 -4 5 3 12 1 16 -5 3
-5 18 -10 32 -10 15 0 23 -3 20 -7 -11 -10 -57 -10 -57 1 0 5 -2 7 -5 5 -2 -3
0 -18 4 -35 7 -23 9 -24 10 -7 1 23 32 26 39 3 3 -7 0 -10 -6 -7 -5 4 -12 -3
-15 -14 -4 -14 -11 -20 -20 -16 -20 7 -50 -26 -45 -50 3 -15 9 -13 36 16 18
18 32 29 33 25 0 -5 4 0 9 11 8 19 9 19 9 -4 1 -16 -3 -21 -13 -18 -14 6 -31
-18 -18 -26 4 -2 1 -2 -6 0 -8 1 -12 -3 -10 -9 3 -7 11 -13 19 -13 8 0 15 -6
15 -12 3 -24 4 -25 18 -14 10 9 16 9 21 1 4 -6 14 -9 22 -6 8 3 21 0 28 -8 12
-12 12 -15 -1 -20 -8 -3 -12 -2 -9 3 3 5 1 12 -5 16 -5 3 -10 1 -10 -5 0 -6
-6 -8 -12 -5 -7 4 -5 0 6 -9 13 -11 24 -12 36 -6 15 8 20 4 28 -18 5 -15 13
-36 18 -46 5 -13 4 -17 -4 -13 -6 4 -13 21 -17 37 -4 17 -11 30 -16 30 -10 0
14 -65 32 -87 6 -7 15 -10 20 -7 5 3 8 -3 7 -13 -4 -55 1 -63 40 -63 24 0 32
3 23 9 -7 5 -22 6 -32 4 -14 -4 -19 0 -19 13 0 16 2 17 10 4 20 -31 9 3 -20
60 -16 33 -30 65 -30 73 0 7 -23 35 -50 62 -41 40 -53 47 -60 35 -5 -8 -12
-11 -16 -7 -4 4 -2 13 4 19 7 7 12 34 12 61 0 44 2 48 20 42 15 -5 35 4 70 31
27 21 47 41 44 46 -4 5 -18 -4 -33 -21 -15 -17 -31 -28 -34 -24 -4 3 -7 1 -7
-6 0 -7 -5 -9 -12 -5 -7 4 -8 3 -4 -4 10 -17 -19 -15 -34 2 -6 8 -18 12 -26 9
-8 -3 -14 0 -14 7 0 6 5 8 10 5 6 -3 10 -1 10 6 0 7 9 5 22 -7 17 -14 16 -11
-5 14 -29 37 -34 52 -14 52 8 0 7 4 -3 10 -13 8 -12 10 3 10 20 0 20 1 7 35
-9 24 -12 26 -27 14 -12 -10 -15 -10 -9 -1 8 13 -15 18 -27 5z m57 -29 c3 -8
2 -12 -4 -9 -9 6 -14 -8 -11 -27 2 -13 -17 -9 -22 5 -3 9 17 41 29 46 1 1 5
-6 8 -15z m-22 -68 c6 4 8 2 4 -4 -3 -5 -3 -12 1 -15 5 -2 2 -2 -4 -1 -7 2
-13 -4 -13 -12 0 -11 -5 -14 -17 -9 -10 4 -24 8 -30 8 -10 0 -10 4 -2 14 10
11 14 10 25 -4 14 -19 18 -12 15 27 0 10 1 11 5 2 3 -6 11 -9 16 -6z m-46
-171 c-9 -9 -16 -13 -16 -8 0 5 5 14 12 21 6 6 14 10 16 7 2 -2 -3 -11 -12
-20z m104 -40 c7 -9 8 -15 2 -15 -5 0 -12 7 -16 15 -3 8 -4 15 -2 15 2 0 9 -7
16 -15z"/>
<path d="M2829 416 c-22 -17 -12 -43 17 -43 14 0 22 2 20 5 -3 3 -2 10 4 16
14 18 -22 37 -41 22z"/>
<path d="M313 410 c-25 -10 -41 -49 -23 -60 18 -11 -32 -21 -72 -14 -32 5 -33
5 -9 -9 18 -11 20 -16 10 -20 -8 -3 1 -6 19 -6 20 -1 31 3 27 9 -3 6 -1 10 4
10 6 0 11 -6 11 -12 1 -7 19 7 40 32 22 25 40 50 40 55 -1 6 -7 1 -15 -9 -8
-11 -15 -15 -15 -9 0 7 -6 13 -12 16 -7 2 -5 3 5 2 9 -2 17 3 17 11 0 8 -1 14
-2 13 -2 0 -13 -4 -25 -9z"/>
<path d="M2577 403 c-9 -14 26 -53 46 -52 6 0 2 5 -10 11 -12 6 -23 20 -25 32
-2 14 -6 17 -11 9z"/>
<path d="M2533 378 c2 -7 0 -21 -5 -30 -7 -14 -5 -18 10 -18 10 0 22 -3 28 -8
5 -4 8 -5 7 -3 -2 2 5 10 15 18 9 8 11 12 5 8 -7 -3 -13 -2 -13 3 0 5 -7 9
-15 9 -8 0 -12 -4 -9 -9 3 -4 1 -8 -5 -8 -5 0 -9 9 -8 19 0 11 6 17 14 14 7
-3 13 0 13 6 0 6 -9 11 -21 11 -12 0 -19 -5 -16 -12z"/>
<path d="M3416 351 c-5 -7 -19 -11 -31 -9 -16 3 -22 1 -18 -8 2 -7 12 -10 21
-8 13 4 12 2 -3 -11 -19 -16 -19 -16 -1 -13 12 2 20 -4 22 -15 6 -38 21 -24
16 14 -1 4 9 4 21 1 21 -5 21 -4 6 14 -9 10 -18 26 -21 34 -3 11 -6 11 -12 1z"/>
<path d="M78 321 c-16 -9 -28 -23 -28 -31 1 -12 3 -11 11 3 5 9 15 17 20 17 6
0 8 -4 5 -8 -2 -4 20 -3 50 2 37 7 49 13 37 17 -10 4 -21 5 -25 2 -4 -2 -16 0
-25 5 -12 6 -27 4 -45 -7z m52 -7 c0 -2 -7 -4 -15 -4 -8 0 -15 4 -15 10 0 5 7
7 15 4 8 -4 15 -8 15 -10z"/>
<path d="M2167 312 c-12 -2 -16 -9 -13 -19 3 -8 6 -18 6 -21 0 -4 12 -8 26 -8
14 -1 23 1 20 4 -3 3 -2 10 4 16 11 15 -18 34 -43 28z"/>
<path d="M810 286 c-18 -22 -5 -48 22 -44 17 2 23 10 23 28 0 29 -26 38 -45
16z"/>
<path d="M2570 20 c0 -11 5 -20 10 -20 6 0 10 9 10 20 0 11 -4 20 -10 20 -5 0
-10 -9 -10 -20z"/>
<path d="M2622 20 c0 -14 2 -19 5 -12 2 6 2 18 0 25 -3 6 -5 1 -5 -13z"/>
<path d="M2657 34 c-4 -4 -7 -14 -7 -23 1 -14 2 -13 11 2 12 21 29 22 29 2 0
-8 5 -15 11 -15 6 0 9 8 7 18 -3 17 -38 29 -51 16z"/>
<path d="M2727 33 c-11 -10 -8 -33 3 -33 6 0 10 7 10 15 0 18 12 19 28 3 9 -9
12 -8 12 5 0 17 -39 25 -53 10z"/>
<path d="M2800 20 c0 -17 2 -19 14 -8 14 13 12 28 -5 28 -5 0 -9 -9 -9 -20z"/>
<path d="M2857 34 c-4 -4 -7 -14 -7 -23 0 -11 3 -10 15 5 15 19 15 19 31 -1
l16 -20 -4 20 c-3 20 -37 32 -51 19z"/>
<path d="M2930 18 c0 -12 1 -19 3 -17 1 2 9 12 16 22 12 14 11 17 -3 17 -10 0
-16 -8 -16 -22z"/>
<path d="M3007 33 c-11 -10 -8 -33 3 -33 6 0 10 7 10 15 0 8 7 15 15 15 8 0
15 -7 15 -15 0 -8 5 -15 11 -15 6 0 8 7 5 16 -3 9 -6 18 -6 20 0 7 -46 5 -53
-3z"/>
<path d="M3087 34 c-10 -11 -8 -34 3 -34 6 0 10 7 10 15 0 20 17 19 30 -2 10
-16 10 -16 8 2 -3 20 -37 32 -51 19z"/>
<path d="M3163 25 c-3 -9 -3 -19 1 -22 3 -4 6 1 6 10 0 10 7 17 15 17 8 0 15
-7 15 -15 0 -8 5 -15 11 -15 6 0 8 7 5 16 -3 9 -6 18 -6 20 0 12 -41 2 -47
-11z"/>
<path d="M3230 18 c1 -23 1 -23 16 -3 l15 20 16 -20 15 -20 -4 20 c-2 13 -12
21 -31 23 -23 3 -27 0 -27 -20z"/>
<path d="M3337 26 c-6 -15 1 -26 14 -26 5 0 6 6 3 14 -3 8 2 16 13 19 15 4 15
5 -3 6 -12 0 -24 -5 -27 -13z"/>
<path d="M3410 20 c0 -11 4 -20 9 -20 11 0 22 26 14 34 -12 12 -23 5 -23 -14z"/>
<path d="M3467 33 c-11 -10 -8 -33 3 -33 6 0 10 7 10 15 0 21 28 19 33 -2 4
-14 5 -12 6 5 1 17 -4 22 -22 22 -13 0 -27 -3 -30 -7z"/>
<path d="M3547 34 c-4 -4 -7 -14 -7 -23 0 -11 3 -11 14 4 12 17 16 18 32 5 15
-13 17 -13 12 0 -5 16 -39 25 -51 14z"/>
<path d="M3610 20 c0 -11 5 -20 10 -20 6 0 10 9 10 20 0 11 -4 20 -10 20 -5 0
-10 -9 -10 -20z"/>
<path d="M3651 14 c0 -11 3 -14 6 -6 3 7 2 16 -1 19 -3 4 -6 -2 -5 -13z"/>
<path d="M2018 3 c7 -3 16 -2 19 1 4 3 -2 6 -13 5 -11 0 -14 -3 -6 -6z"/>
<path d="M2068 3 c7 -3 16 -2 19 1 4 3 -2 6 -13 5 -11 0 -14 -3 -6 -6z"/>
<path d="M2118 3 c7 -3 16 -2 19 1 4 3 -2 6 -13 5 -11 0 -14 -3 -6 -6z"/>
<path d="M2198 3 c7 -3 16 -2 19 1 4 3 -2 6 -13 5 -11 0 -14 -3 -6 -6z"/>
<path d="M2298 3 c7 -3 16 -2 19 1 4 3 -2 6 -13 5 -11 0 -14 -3 -6 -6z"/>
<path d="M2348 3 c7 -3 16 -2 19 1 4 3 -2 6 -13 5 -11 0 -14 -3 -6 -6z"/>
<path d="M2438 3 c7 -3 16 -2 19 1 4 3 -2 6 -13 5 -11 0 -14 -3 -6 -6z"/>
</g>
</svg>
